<svg width="40" height="64" viewBox="0 0 40 64" fill="none" xmlns="http://www.w3.org/2000/svg">
<path d="M36.1 53.6825C36.7137 54 37.4675 53.7588 37.7837 53.145C39.2337 50.3363 40 47.1738 40 44C40 34.325 33.1162 26.2663 24.015 24.405C24.0062 24.4038 23.9825 24.3988 23.9788 24.3988C23.0813 24.2175 22.1675 24.0988 21.25 24.0413V16.25C21.25 14.8713 22.3713 13.75 23.75 13.75C30.6425 13.75 36.25 8.1425 36.25 1.25C36.25 0.56 35.69 0 35 0H31.25C26.3088 0 22.0275 2.8825 20 7.055C17.9725 2.8825 13.6912 0 8.75 0H5C4.31 0 3.75 0.56 3.75 1.25C3.75 8.1425 9.3575 13.75 16.25 13.75C17.6287 13.75 18.75 14.8713 18.75 16.25V24.04C8.11625 24.7025 0 33.5513 0 44C0 55.0288 8.97125 64 20 64C23.305 64 26.5825 63.1725 29.4788 61.6087C30.0863 61.28 30.3125 60.5225 29.9837 59.915C29.655 59.3075 28.8975 59.0812 28.29 59.41C25.9813 60.6575 23.3938 61.3662 20.7625 61.4825C21.11 61.3 21.3588 60.9613 21.4188 60.56C21.7138 58.57 22.5538 57.8387 23.825 56.7313C24.6737 55.9912 25.635 55.1538 26.5812 53.82C27.62 52.3575 28.0212 50.5775 27.7087 48.8075L27.2388 46.1425C27.1187 45.4625 26.47 45.0088 25.7913 45.1287L23.44 45.5425C22.0725 45.7837 20.7087 45.2412 19.88 44.125C18.19 41.845 15.2375 41.0462 12.6438 42.0863C12.6363 42.0812 12.6287 42.0763 12.6213 42.0713C11.6875 41.455 11.1562 40.5725 11.1237 39.5887C11.1025 38.9437 11.295 38.3063 11.6575 37.75C11.7825 37.9762 11.9875 38.1937 12.3387 38.3112C12.7762 38.4587 13.255 38.35 13.5863 38.0425C14.1225 37.545 13.9937 36.9375 13.8962 36.5525C13.8562 36.04 13.5087 35.3988 14.0013 34.695C14.225 34.3763 14.5588 34.1637 14.9412 34.0962L16.55 33.8138C18.2662 33.51 22.1712 29.4888 24.2388 27.0212C26.7025 27.6362 28.995 28.7825 30.975 30.3825C27.7712 32.2625 27.8675 32.1537 27.6675 32.3537C26.93 33.0887 26.4975 34.1087 26.4975 35.1512V36.7363C26.4975 38.9175 28.2825 40.6925 30.4638 40.6925C31.2663 40.6925 31.92 41.345 31.92 42.1475C31.92 42.7512 32.3512 43.2675 32.9437 43.3763L37.4938 44.2125C37.4613 46.9513 36.8125 49.57 35.56 51.9963C35.2463 52.6113 35.4875 53.365 36.1 53.6825ZM16.25 11.25C11.1588 11.25 6.945 7.42625 6.3275 2.5H8.75C14.0662 2.5 18.4275 6.67 18.7325 11.9113C18.0012 11.4913 17.1525 11.25 16.25 11.25ZM31.25 2.49875H33.6725C33.055 7.425 28.8412 11.25 23.75 11.25C22.8475 11.25 21.9988 11.4913 21.2675 11.9113C21.5725 6.67 25.9338 2.49875 31.25 2.49875ZM17.8738 45.6138C19.27 47.495 21.57 48.41 23.875 48.0037L24.9937 47.8063L25.2463 49.24C25.4412 50.345 25.1912 51.4575 24.5413 52.3713C23.7675 53.4625 22.96 54.165 22.18 54.845C21.3313 55.585 20.465 56.3388 19.8237 57.4863C18.9712 56.36 18.4012 56.1113 18.0325 55.8488C18 55.7863 17.9087 55.5625 17.7862 54.8713C17.5562 53.5612 16.8288 52.42 15.74 51.6587L14.8938 51.0662C16.0613 49.3187 16.0087 47.03 14.7525 45.3363L13.9663 44.2762C15.4088 43.8775 16.9563 44.3763 17.8738 45.6138ZM12.7463 46.825C13.3825 47.6825 13.3988 48.8462 12.7863 49.7212L12.1313 50.655C11.735 51.22 11.8725 52 12.4375 52.3963L14.3088 53.7062C14.85 54.085 15.2125 54.6525 15.3263 55.3037C15.6337 57.0425 16.025 57.5387 16.8425 58.0537C17.1088 58.2212 17.3825 58.395 17.85 59.0175L19.125 61.0412C19.2512 61.2425 19.43 61.395 19.6338 61.495C10.1525 61.2987 2.5 53.5275 2.5 44C2.5 42.7525 2.635 41.51 2.8975 40.2962C3.29625 40.83 3.83375 41.2713 4.48125 41.555L10.94 44.3887L12.7463 46.825ZM16.0763 31.3587L14.5087 31.6338C13.4675 31.8175 12.5612 32.395 11.955 33.2612C11.6575 33.685 11.4513 34.1537 11.3387 34.6437C11.22 34.6975 11.1038 34.765 10.995 34.8475C9.4525 36.0163 8.56625 37.8187 8.62625 39.6675C8.6375 40.02 8.68375 40.3662 8.7625 40.7038L5.485 39.265C4.8075 38.9688 4.4525 38.2213 4.67625 37.5638C4.92125 36.8425 4.95875 36.0737 4.795 35.3438C7.9175 29.8775 13.6962 26.5 20 26.5C20.4487 26.5 20.8975 26.5175 21.3463 26.5513C19.1538 28.9963 16.7763 31.09 16.0763 31.3587ZM30.4662 38.1925C29.6637 38.1925 29 37.5388 29 36.7363V35.1512C29 34.8137 29.13 34.4825 29.3438 34.225L32.8825 32.1662C35.315 34.8112 36.8613 38.105 37.34 41.6425L34.2762 41.0788C33.8088 39.4163 32.2775 38.1925 30.4662 38.1925Z" fill="black"/>
</svg>
