<svg width="87" height="96" viewBox="0 0 87 96" fill="none" xmlns="http://www.w3.org/2000/svg">
<path d="M16.5411 28.1388C16.5872 28.1342 16.6287 28.125 16.6748 28.125H16.7901L16.9377 28.1526L17.9337 28.3694C18.1228 28.2587 18.3441 28.1941 18.5701 28.1941H18.6854L18.833 28.2218L19.8244 28.4385C20.1564 28.3463 20.5484 28.2679 20.9773 28.2034C21.0925 27.8575 21.3139 27.5439 21.6367 27.3272L25.0952 24.9708V24.7448L25.5702 24.6434L25.6763 24.5696C25.9668 24.3713 26.308 24.2698 26.6539 24.2698C26.7646 24.2698 26.8706 24.2791 26.9813 24.3021C27.0136 24.3067 27.0412 24.3206 27.0735 24.3298L27.1704 24.3113V24.3621C27.5439 24.4774 27.8713 24.7079 28.0926 25.0399L28.4708 25.5979C28.8996 25.6025 29.204 25.6901 29.2916 25.7178L29.5176 25.7916L30.177 26.3957V16.4581L16.5319 19.3679V28.1388H16.5411ZM24.7909 18.9529L26.8706 18.5194V21.1249L24.7909 21.5676V18.9529ZM23.0109 25.8377L20.9311 26.2804V23.6796L23.0109 23.2415V25.8377ZM19.4324 20.0965L21.5122 19.6584V22.2639L19.4324 22.7066V20.0965Z" fill="white"/>
<path d="M31.233 16.2828L36.8497 18.6946V20.6821L43.7806 21.6413C43.6884 21.3784 43.6792 21.0971 43.776 20.8251C43.8867 20.5253 44.1126 20.2763 44.4032 20.1426C44.5553 20.0734 44.7121 20.0365 44.8781 20.0365V0L31.233 4.28399V16.2828ZM43.2365 19.5616L41.1567 20.0688V17.3481L43.2365 16.8408V19.5616ZM39.326 4.37622L41.4057 3.86896V6.58969L39.326 7.09694V4.37622ZM39.326 9.17207L41.4057 8.66482V11.3855L39.326 11.8928V9.17207ZM38.0118 14.2446L40.0915 13.7374V16.4581L38.0118 16.9653V14.2446ZM33.7508 5.25238L35.8306 4.74513V7.46585L33.7508 7.97311V5.25238ZM33.7508 10.0482L35.8306 9.54098V12.2617L33.7508 12.769V10.0482Z" fill="white"/>
<path d="M0.562591 85.4307C0.415026 85.4307 0.272072 85.3707 0.16601 85.2693C0.0599482 85.1586 0 85.0156 0 84.8681V83.8351C0 83.54 0.23057 83.2956 0.525699 83.2771L0.79316 83.2587C0.843886 83.2541 0.85772 83.2449 0.876166 83.2218C0.894611 83.2034 0.977616 83.1065 1.06523 82.816C1.66471 80.8746 2.26881 78.6934 2.85907 76.3231C2.90518 76.1479 3.02969 76.0004 3.20031 75.9358C4.03036 75.6176 4.88808 75.304 5.75041 74.9951C5.89798 74.9443 6.05938 74.9582 6.19772 75.0273C6.33606 75.1011 6.43751 75.2256 6.47901 75.3732C7.07388 77.5175 7.6872 79.8278 8.29591 82.2304C8.38352 82.5624 8.44347 82.7284 8.48036 82.8068H8.48497C8.48497 82.8068 8.66021 82.7976 8.78932 82.7929L8.95072 82.7837C8.96456 82.7837 8.983 82.7837 8.99223 82.7791C8.99684 82.7053 9.00145 82.5947 8.99684 82.4286L8.86311 76.7382C8.86311 76.6736 8.8585 76.6183 8.8585 76.5722L8.6187 76.6413C8.4573 76.6874 8.26824 76.6552 8.13451 76.5537C7.99155 76.4477 7.91316 76.2909 7.90855 76.1156L7.87627 74.6861C7.87166 74.4417 8.02844 74.2157 8.26363 74.142C9.68394 73.6762 11.1319 73.2335 12.5661 72.8231C12.7321 72.777 12.9165 72.8093 13.0503 72.9107C13.1932 73.0122 13.2716 73.1736 13.2762 73.3488L13.3177 74.9582C13.3269 75.221 13.1471 75.4516 12.8935 75.5162L12.4877 75.6176C12.4369 75.6314 12.4001 75.6407 12.377 75.6499C12.3678 75.7237 12.3585 75.8528 12.3632 76.0695V76.1479L12.5246 82.5716C12.9765 82.5439 13.1287 82.4886 13.1655 82.4701C13.207 82.4517 13.2716 82.4102 13.3316 82.2949C13.433 82.1058 13.5068 81.8338 13.5575 81.4833C13.6128 81.1006 13.6405 80.5656 13.6497 79.8416C13.6544 79.5604 13.8665 79.3206 14.1478 79.2883L15.2683 79.1592C15.4113 79.1361 15.5819 79.1914 15.6972 79.2929C15.8171 79.3943 15.8863 79.5419 15.8909 79.6987L15.96 82.4471C15.9785 82.4425 15.9969 82.4425 16.0154 82.4425L16.3151 82.4286C16.3474 82.4286 16.3751 82.424 16.3981 82.424C16.4074 82.318 16.412 82.1566 16.4074 81.9076L16.2367 75.1334C16.2321 74.9766 16.2275 74.8429 16.2183 74.7368C16.1076 74.7599 15.937 74.7968 15.937 74.7968C15.9001 74.806 15.8632 74.8106 15.8171 74.8106C15.6926 74.8106 15.5681 74.7691 15.4712 74.6907C15.3375 74.5847 15.2591 74.4325 15.2591 74.2619L15.213 72.5372C15.2038 72.2743 15.379 72.0438 15.6373 71.9792C17.0806 71.6149 18.5517 71.2737 19.9996 70.9647C20.1749 70.9278 20.3363 70.9739 20.4654 71.0754C20.5945 71.1768 20.6729 71.3336 20.6775 71.4996L20.7236 73.3626C20.7328 73.6393 20.5392 73.8791 20.2625 73.9298L19.8567 74.0036C19.8244 74.0082 19.7967 74.0175 19.7737 74.0221C19.7645 74.1097 19.7552 74.2711 19.7598 74.557L19.9489 82.2534C20.4193 82.2303 20.5576 82.1612 20.5761 82.1566C20.6452 82.1197 20.7006 82.0505 20.7513 81.9444C20.8574 81.7185 20.9404 81.3911 20.9911 80.9807C21.0464 80.5334 21.0787 79.897 21.0833 79.09C21.0879 78.7995 21.3047 78.5597 21.5952 78.5366C22.748 78.4398 22.7619 78.4398 22.7665 78.4398C22.9048 78.4398 23.0385 78.4905 23.14 78.5827C23.2553 78.6842 23.3198 78.8364 23.3245 78.9885L23.449 84.6928C23.4536 84.845 23.3936 84.988 23.2922 85.0986C23.1861 85.2047 23.0432 85.2693 22.891 85.2693C20.7144 85.2785 16.435 85.3015 16.1122 85.3062C15.9877 85.3062 15.877 85.2739 15.7802 85.2093C15.688 85.2739 15.5773 85.3108 15.4712 85.3108C13.4561 85.3246 9.65166 85.3523 8.83544 85.3569L6.62197 85.3753C5.57979 85.3845 4.58834 85.3938 4.58834 85.3938C4.44078 85.3938 4.29782 85.3338 4.19637 85.2324C4.09031 85.3384 3.95197 85.3984 3.79979 85.3984C3.79057 85.3984 0.562591 85.4307 0.562591 85.4307ZM5.93948 75.1472C5.89798 75.1472 5.85186 75.1565 5.81036 75.1703C4.94803 75.4747 4.09031 75.7928 3.26487 76.111C3.14959 76.1571 3.06197 76.254 3.0343 76.3739C2.43943 78.7441 1.83534 80.9299 1.23585 82.8759C1.14363 83.1803 1.0514 83.3048 1.00528 83.3555C0.968394 83.3924 0.913057 83.4385 0.802383 83.4478L0.534922 83.4662C0.336632 83.48 0.179845 83.6461 0.179845 83.8443V84.8773C0.179845 84.9787 0.221347 85.0756 0.290518 85.1448C0.359689 85.2139 0.456528 85.2554 0.557979 85.2554C0.571813 85.2554 3.78596 85.2278 3.78596 85.2278C3.88741 85.2278 3.98425 85.1863 4.05342 85.1125C4.07186 85.094 4.0857 85.071 4.10414 85.0479L4.18254 84.928L4.26093 85.0479C4.3301 85.154 4.45 85.2185 4.57912 85.2185L8.8216 85.1863C9.63782 85.1816 13.4376 85.154 15.4574 85.1401C15.545 85.1401 15.6373 85.1033 15.7064 85.0387L15.7664 84.9834L15.8263 85.0387C15.877 85.0848 15.96 85.1401 16.0753 85.1401C16.4212 85.1401 20.696 85.1125 22.8771 85.1033C22.9786 85.1033 23.0754 85.0618 23.1446 84.988C23.2138 84.9142 23.2553 84.8173 23.2507 84.7159L23.1262 79.0116C23.1262 78.9101 23.08 78.8087 23.0017 78.7395C22.9325 78.675 22.8403 78.6427 22.748 78.6427C22.7111 78.6427 21.5952 78.7395 21.5952 78.7395C21.4015 78.758 21.2493 78.9194 21.2493 79.113C21.2447 79.9293 21.2124 80.5749 21.1571 81.0268C21.1018 81.4603 21.0188 81.8015 20.9035 82.0459C20.8343 82.1888 20.7513 82.2903 20.6498 82.341C20.5899 82.3733 20.3962 82.4471 19.8613 82.4655L19.7691 82.4701L19.7598 82.3779L19.5708 74.5893C19.5616 74.2342 19.58 74.0543 19.5938 73.9621L19.6031 73.9114L19.6492 73.8929C19.6953 73.8745 19.7506 73.8607 19.8152 73.8468L20.221 73.773C20.4054 73.7408 20.5346 73.5794 20.5299 73.3903L20.4838 71.5273C20.4838 71.4166 20.4285 71.3106 20.3409 71.2414C20.2533 71.1722 20.138 71.1446 20.0273 71.1676C18.5793 71.4766 17.1129 71.8178 15.6695 72.1821C15.4989 72.2282 15.379 72.3804 15.3836 72.5603L15.4297 74.2849C15.4297 74.3956 15.4851 74.5017 15.5727 74.5708C15.6603 74.64 15.794 74.663 15.8863 74.6446L16.3659 74.5385L16.3797 74.64C16.3935 74.7691 16.4074 74.9443 16.412 75.1565L16.5826 81.9306C16.5918 82.1842 16.5826 82.3964 16.5688 82.5439L16.5595 82.6131L16.4904 82.6223C16.4535 82.6269 16.3981 82.6315 16.3197 82.6362L16.02 82.65C15.9831 82.65 15.9462 82.6638 15.9001 82.6823L15.7802 82.7284L15.7018 79.731C15.6972 79.6249 15.6511 79.5235 15.5727 79.4589C15.4943 79.3897 15.3928 79.3575 15.2822 79.3667L14.1616 79.4958C13.9725 79.5188 13.8296 79.6802 13.8296 79.8693C13.8204 80.5979 13.7927 81.1421 13.7374 81.534C13.6866 81.9029 13.6036 82.1981 13.493 82.401C13.4284 82.5255 13.3454 82.6085 13.2393 82.6546C13.1609 82.6915 12.958 82.7514 12.4369 82.7791L12.3447 82.7837L12.3401 82.6915L12.1787 76.2632L11.8006 76.2724L11.7821 76.0926L12.1741 76.0142C12.1741 75.7836 12.1833 75.6545 12.1971 75.5899L12.2064 75.5438L12.2479 75.5254C12.2802 75.5069 12.3401 75.4839 12.4416 75.4608L12.8474 75.3594C13.0226 75.3179 13.1379 75.1611 13.1333 74.9812L13.0918 73.3719C13.0871 73.252 13.0318 73.1459 12.9396 73.0767C12.8474 73.0076 12.7275 72.9891 12.6122 73.0168C11.1826 73.4226 9.73466 73.8653 8.31435 74.331C8.15756 74.3818 8.0515 74.5339 8.05611 74.6999L8.08839 76.1295C8.08839 76.2494 8.14834 76.3554 8.24057 76.4246C8.3328 76.4938 8.46192 76.5122 8.56798 76.4845L9.02451 76.3554L9.03373 76.4661C9.04295 76.5399 9.04756 76.6321 9.04756 76.7566L9.18129 82.4471C9.18591 82.6961 9.17668 82.8344 9.17207 82.8898L9.16746 82.959L9.09829 82.9728C9.06601 82.9774 9.0199 82.982 8.96456 82.9866L8.80316 82.9958C8.67404 83.0005 8.4942 83.0097 8.4942 83.0097H8.43886L8.37891 83.0281L8.34202 82.959C8.30513 82.8944 8.23135 82.7192 8.12067 82.2949C7.51197 79.8924 6.90326 77.5867 6.30378 75.4424C6.27611 75.3409 6.20694 75.2579 6.11471 75.2072C6.06399 75.1611 6.00404 75.1472 5.93948 75.1472ZM4.15948 83.5262L4.07648 83.4109C4.06264 83.3924 4.0442 83.374 4.02575 83.3555C3.95658 83.291 3.86435 83.2541 3.76751 83.2541C3.74907 83.2541 3.4401 83.2725 3.4401 83.2725L3.31098 83.2818L3.5185 82.5209L3.57845 82.5116C3.98425 82.4609 4.38544 82.4102 4.79124 82.3595L4.86964 82.3502L5.04948 82.9728C5.0587 83.0097 5.06793 83.042 5.07254 83.0789L5.08637 83.1757L4.98953 83.1849C4.95264 83.1895 4.53762 83.2126 4.53762 83.2126C4.4085 83.2218 4.29321 83.291 4.22865 83.4063L4.15948 83.5262ZM3.76751 83.0742C3.90585 83.0742 4.03497 83.125 4.14104 83.2126C4.23787 83.1019 4.37622 83.0373 4.52378 83.0281L4.52839 83.1204L4.52378 83.0281C4.52378 83.0281 4.73591 83.0143 4.86503 83.0097L4.73591 82.5532C4.37622 82.5993 4.02114 82.6408 3.66145 82.6869L3.55539 83.0881C3.65223 83.0788 3.7629 83.0742 3.76751 83.0742ZM4.01653 80.4596L4.15026 79.8278L4.31166 80.4088L4.01653 80.4596Z" fill="white"/>
<path d="M26.9951 85.2601C26.6908 85.2601 26.4418 85.0111 26.4325 84.7067L26.3956 82.6869C26.3864 82.3733 26.64 82.1059 26.9444 82.0967L27.3087 82.0874H27.3133C27.3271 81.9399 27.3318 81.7416 27.3271 81.5064L27.1842 73.4872C27.1796 73.1874 27.1657 72.9984 27.1519 72.8785C27.0366 72.8923 26.8383 72.92 26.8383 72.92C26.6862 72.943 26.5201 72.8923 26.4003 72.7862C26.2804 72.6802 26.2066 72.5326 26.2066 72.3712L26.1697 70.3422C26.1651 70.0609 26.3726 69.8165 26.6493 69.775C28.1019 69.5583 29.5913 69.3646 31.0762 69.2032C31.2514 69.1847 31.4221 69.1755 31.5835 69.1755C32.4827 69.1755 33.1882 69.4706 33.6816 70.0471C34.2258 70.6927 34.5025 71.6749 34.5163 73.0537C34.5255 73.9622 34.3918 74.7738 34.1105 75.4655C33.9399 75.8943 33.7093 76.2725 33.4326 76.5953C33.843 76.895 34.1705 77.287 34.4149 77.7666C34.7699 78.4629 34.9544 79.3805 34.9636 80.4873C34.9636 80.7225 34.9636 80.953 34.9544 81.1698C34.9728 81.0729 34.9913 80.9623 35.0143 80.8377C35.6138 76.9734 36.2225 73.0814 36.8358 69.1663C36.8773 68.9035 37.0987 68.7052 37.3615 68.6959C38.2377 68.6498 39.1369 68.6129 40.0362 68.5899C40.3313 68.5899 40.5665 68.7882 40.608 69.0649C41.1706 72.754 41.7424 76.5676 42.3557 80.7317C42.471 81.4926 42.5494 81.7831 42.5863 81.8845L42.9598 81.8938C43.0658 81.8938 43.1719 81.926 43.2641 81.9906C43.3564 81.926 43.4624 81.8938 43.5685 81.8938H43.9789C43.9927 81.7508 44.0112 81.511 44.0112 81.119L44.0158 78.5044C43.4947 76.6414 42.969 74.7784 42.4433 72.9154C42.2865 72.3758 42.1482 72.1084 42.0606 71.9793C42.0098 71.9101 41.9776 71.8778 41.9637 71.8686H41.77C41.6225 71.8686 41.4841 71.8086 41.3781 71.7072C41.272 71.6011 41.2121 71.4628 41.2121 71.3106L41.2074 69.1156C41.2074 68.8112 41.4565 68.5576 41.7608 68.553C43.195 68.5345 44.6383 68.5438 46.0725 68.5807C46.1555 68.5807 46.2385 68.6037 46.3123 68.6406C46.3814 68.6083 46.4598 68.5945 46.5382 68.5945C47.6496 68.6268 48.7609 68.6775 49.8723 68.7421C50.172 68.7605 50.4026 69.0095 50.398 69.3046L50.3795 71.472C50.3795 71.6242 50.315 71.7717 50.2043 71.8778C50.0982 71.9746 49.9599 72.03 49.8215 72.03C49.8169 72.03 49.7016 72.0254 49.6325 72.0208C49.6232 72.03 49.614 72.0438 49.6048 72.0576C49.5449 72.1499 49.4111 72.4081 49.1852 73.1275C48.6687 74.806 48.1338 76.5722 47.5481 78.5274L47.5343 81.1283C47.5343 81.5617 47.5527 81.7877 47.5666 81.8984C47.5712 81.8984 47.5712 81.8984 47.5758 81.8984L47.9724 81.903C48.2813 81.9076 48.5303 82.1566 48.5303 82.4656L48.5165 84.6606C48.5165 84.9696 48.2629 85.2186 47.9539 85.2186H43.5639C43.4578 85.2186 43.3517 85.1863 43.2595 85.1217C43.1673 85.1863 43.0612 85.2186 42.9552 85.2186H38.5697C38.4176 85.2186 38.2746 85.1586 38.1731 85.0572C38.0671 85.1632 37.9287 85.2232 37.7766 85.2232L34.5486 85.2278C34.2442 85.2278 33.9906 84.9788 33.986 84.6698L33.9814 84.2363C33.3773 84.8958 32.455 85.2278 31.233 85.2324C31.2238 85.2462 26.9951 85.2601 26.9951 85.2601ZM27.3041 72.6848L27.3179 72.7632C27.3364 72.8739 27.3594 73.086 27.364 73.4826L27.507 81.5018C27.5116 81.7877 27.507 82.0229 27.4885 82.1843L27.4793 82.2534L27.4101 82.2627C27.3871 82.2673 27.3548 82.2673 27.3133 82.2719L26.949 82.2811C26.7461 82.2857 26.5755 82.4702 26.5801 82.6869L26.617 84.7067C26.6216 84.9142 26.7876 85.0802 26.9951 85.0802L31.2284 85.0664C32.5057 85.0618 33.4372 84.6883 33.9952 83.9458L34.1566 83.7291L34.1658 84.679C34.1658 84.8866 34.3365 85.0526 34.544 85.0526L37.772 85.048C37.8734 85.048 37.9702 85.0065 38.0394 84.9373C38.0579 84.9188 38.0763 84.8958 38.0901 84.8727L38.1685 84.7482L38.2469 84.8681C38.3161 84.9788 38.436 85.0433 38.5651 85.0433H42.9506C43.0382 85.0433 43.1212 85.0111 43.195 84.9465L43.2549 84.8958L43.3149 84.9465C43.3886 85.0111 43.4763 85.0433 43.5593 85.0433H47.9493C48.1568 85.0433 48.3274 84.8727 48.3274 84.6698L48.3413 82.4748C48.3413 82.2673 48.1753 82.0967 47.9678 82.0967L47.5758 82.092C47.5297 82.092 47.4974 82.0874 47.4743 82.0828L47.4144 82.0736L47.4006 82.0137C47.3821 81.9214 47.3498 81.6862 47.3498 81.1375L47.3637 78.4952C47.9493 76.5353 48.4888 74.7645 49.0053 73.0814C49.2221 72.3758 49.365 72.0853 49.4434 71.9654C49.4572 71.947 49.4665 71.9331 49.4757 71.9193L49.4526 71.8363L49.5817 71.8409C49.5817 71.8409 49.7985 71.8501 49.8123 71.8501C49.9092 71.8501 50.0014 71.8132 50.0706 71.7487C50.1443 71.6795 50.1858 71.5781 50.1905 71.4766L50.2089 69.3093C50.2089 69.1064 50.0521 68.9403 49.8538 68.9311C48.7517 68.8666 47.6357 68.8158 46.5428 68.7836C46.4644 68.7836 46.4045 68.802 46.3492 68.8297L46.303 68.8573L46.2569 68.8297C46.197 68.7928 46.1324 68.7697 46.0633 68.7697C44.6337 68.7328 43.1904 68.7236 41.7562 68.7421C41.5487 68.7421 41.3827 68.9127 41.3827 69.1202L41.3873 71.3152C41.3873 71.4167 41.4288 71.5135 41.498 71.5827C41.5671 71.6518 41.664 71.6933 41.7654 71.6933H41.9776C42.0652 71.6933 42.1574 71.8132 42.2081 71.8824C42.305 72.0208 42.4525 72.3067 42.6139 72.8739C43.1442 74.7369 43.6699 76.6091 44.191 78.4767L44.1956 78.4998L44.191 81.1283C44.191 81.5064 44.1772 81.8108 44.1495 81.9998L44.1403 82.069L44.0711 82.0782C44.0388 82.0828 44.0066 82.0828 43.9697 82.0828H43.5593C43.4486 82.0828 43.3656 82.1336 43.3149 82.1797L43.2549 82.2304L43.195 82.1797C43.1442 82.1336 43.0612 82.0828 42.9506 82.0828L42.4618 82.0736L42.4387 82.0275C42.411 81.9768 42.3188 81.7416 42.1712 80.7686C41.5579 76.6045 40.9861 72.7909 40.4235 69.1017C40.3958 68.9173 40.2391 68.7789 40.05 68.7789C39.1415 68.802 38.2423 68.8389 37.3708 68.885C37.1955 68.8942 37.0434 69.028 37.0157 69.2032C36.3978 73.1183 35.7937 77.0149 35.1942 80.8746C35.0927 81.5202 34.9867 81.8246 34.9175 81.9675C34.8991 82.009 34.8806 82.0367 34.8668 82.0552L34.6408 82.4241L34.7008 81.9952C34.7653 81.5387 34.793 81.0453 34.7884 80.4965C34.7792 79.4174 34.5993 78.5274 34.2581 77.8588C34.0137 77.3746 33.6724 76.9826 33.2528 76.6967L33.1652 76.6368L33.2343 76.5584C33.5249 76.2356 33.7647 75.8482 33.9445 75.4055C34.2166 74.7369 34.3457 73.9483 34.3365 73.0629C34.3226 71.7302 34.0644 70.7803 33.5479 70.1716C33.013 69.5352 32.1968 69.2724 31.1039 69.3923C29.6236 69.5537 28.1387 69.7473 26.6862 69.9641C26.4971 69.9917 26.3587 70.1531 26.3634 70.3468L26.4003 72.3758C26.4003 72.4819 26.451 72.5833 26.5294 72.6525C26.6078 72.7217 26.7138 72.754 26.8245 72.7401C27.0827 72.7079 27.2211 72.6894 27.2349 72.6894L27.3041 72.6848ZM38.1547 82.401L38.0763 82.2811C38.0579 82.2534 38.0394 82.2304 38.021 82.2119C37.9518 82.1428 37.855 82.1013 37.7535 82.1013C37.3615 82.1013 37.3569 82.1013 37.3477 82.1013L37.2601 82.092V82.0044C37.2601 81.926 37.2647 81.8384 37.2785 81.7416C37.2878 81.6355 37.3108 81.488 37.3523 81.2343L37.5229 80.0815H37.6013C37.9841 80.0769 38.3714 80.0676 38.7542 80.063H38.8326L39.0447 81.3819C39.0585 81.4833 39.0724 81.5848 39.0816 81.6909C39.0908 81.7877 39.0954 81.8891 39.0954 81.9906V82.0782L39.0078 82.0828C38.9709 82.0828 38.9294 82.0874 38.8787 82.0874H38.5513C38.4222 82.0874 38.3023 82.1566 38.2331 82.2673L38.1547 82.401ZM37.7443 81.9214C37.8965 81.9214 38.044 81.9814 38.1455 82.0828C38.2469 81.9768 38.3899 81.9168 38.5421 81.9122H38.8695C38.8787 81.9122 38.8925 81.9122 38.9018 81.9122C38.9018 81.843 38.8971 81.7785 38.8925 81.7139C38.8833 81.6079 38.8741 81.5156 38.8602 81.4188L38.6712 80.2567C38.3392 80.2613 38.0071 80.2659 37.6797 80.2705L37.5322 81.2712C37.4907 81.5248 37.4722 81.6678 37.4584 81.7693C37.4538 81.8246 37.4492 81.8753 37.4445 81.9214C37.5506 81.926 37.712 81.9214 37.7443 81.9214ZM30.6612 82.2212L30.6012 78.2646L30.7442 78.26C30.9978 78.26 31.1638 78.3568 31.2929 78.5874C31.4128 78.7995 31.5558 79.2422 31.5696 80.1506C31.5835 81.1467 31.4543 81.6263 31.3483 81.8523C31.2238 82.1059 31.0485 82.2166 30.7534 82.2212H30.6612ZM30.7857 78.4444L30.841 82.0321C31.007 82.009 31.1039 81.9353 31.1823 81.7739C31.2837 81.5663 31.399 81.119 31.3852 80.1553C31.3713 79.2883 31.2422 78.8733 31.1315 78.6796C31.0439 78.5182 30.9471 78.4537 30.7857 78.4444ZM37.9426 77.1163L38.1363 75.5854L38.3576 77.1071L37.9426 77.1163ZM30.5597 75.5715L30.509 72.3574L30.5966 72.3482C30.5966 72.3482 30.6658 72.3436 30.6935 72.3436C30.8779 72.3436 30.9886 72.3989 31.0716 72.5372C31.1638 72.6894 31.2745 73.0399 31.2883 73.8238C31.2976 74.6216 31.1823 75.0228 31.0854 75.2165C30.9886 75.4055 30.8595 75.5116 30.6704 75.5485L30.5597 75.5715ZM30.6935 72.528L30.735 75.3363C30.8087 75.2995 30.8687 75.2349 30.9148 75.1381C31.007 74.9582 31.1085 74.5847 31.0993 73.8284C31.0854 73.0122 30.9609 72.7171 30.9102 72.6295C30.8779 72.5695 30.841 72.528 30.6935 72.528ZM46.2523 74.1466L45.7497 72.3943C45.7174 72.2744 45.6897 72.1775 45.6759 72.0807C45.6667 72.0254 45.6574 71.9608 45.6574 71.8916C45.6574 71.8179 45.6574 71.6933 45.7635 71.6933H45.8465L45.8511 71.7164L46.031 71.721C46.0955 71.721 46.1601 71.7026 46.2154 71.6703L46.2615 71.6426L46.3077 71.6703C46.3676 71.7072 46.4322 71.7256 46.4967 71.7302L46.6305 71.7348H46.8518L46.8472 71.8317C46.8426 71.9147 46.838 72.0023 46.8195 72.1038C46.8011 72.2283 46.778 72.3297 46.7503 72.4173C46.612 72.8923 46.4691 73.3673 46.3307 73.8469L46.2523 74.1466ZM45.8465 71.8962C45.8465 71.9516 45.8511 72.0023 45.8603 72.0484C45.8742 72.136 45.8972 72.2283 45.9295 72.3436L45.9341 72.3666L46.2523 73.4872C46.363 73.1137 46.4737 72.7355 46.5843 72.362C46.612 72.279 46.6305 72.1868 46.6443 72.0761C46.6535 72.0208 46.6581 71.97 46.6627 71.9193L46.4967 71.9147C46.4137 71.9147 46.3353 71.8916 46.2615 71.8547C46.1924 71.887 46.114 71.9009 46.0356 71.9009C46.031 71.9009 45.9249 71.9009 45.8465 71.8962Z" fill="white"/>
<path d="M67.58 85.6016C66.4964 85.6016 65.9476 85.0436 65.6801 84.5732C65.6663 84.5455 65.6525 84.5225 65.6386 84.4948L65.634 84.73C65.6294 85.0343 65.3758 85.2787 65.076 85.2787L60.7275 85.2603L56.6464 85.2465C56.4988 85.2465 56.3559 85.1865 56.2498 85.0805C56.1484 85.1819 56.0054 85.2419 55.8533 85.2419L52.6253 85.2326C52.4777 85.2326 52.3301 85.1727 52.2287 85.0666C52.1226 84.9606 52.0673 84.813 52.0673 84.6654L52.0904 82.535C52.0904 82.3828 52.1549 82.2306 52.261 82.1292C52.3717 82.0231 52.5146 81.9585 52.6529 81.9585C52.6529 81.9585 52.7821 81.9585 52.8558 81.9632C52.8651 81.9493 52.8743 81.9309 52.8881 81.9078C52.9573 81.7787 53.0634 81.502 53.1694 80.8933C53.8565 77.0981 54.5528 73.3352 55.2399 69.7153C55.2953 69.4294 55.572 69.2265 55.8533 69.2634C56.711 69.3602 57.6056 69.4709 58.514 69.5954C58.763 69.6323 58.9613 69.826 58.9936 70.075C59.5009 73.801 60.0035 77.4717 60.5015 81.0778C60.603 81.7695 60.6722 82.0323 60.7044 82.1199C60.7044 82.1199 60.7044 82.1199 60.7091 82.1199L61.1518 82.1292C61.1518 82.1292 61.1517 82.1292 61.1564 82.1292C61.1702 82.0185 61.1886 81.8202 61.1979 81.4928L61.3547 73.8517C61.3639 73.4505 61.35 73.2476 61.3362 73.1508C61.3178 73.1462 61.2947 73.1416 61.2624 73.1369L60.8981 73.0862C60.6168 73.0447 60.4093 72.8003 60.4139 72.519L60.4554 70.5177C60.46 70.3563 60.5338 70.2041 60.6583 70.098C60.7828 69.9966 60.9442 69.9459 61.1103 69.9735C62.7888 70.2456 64.4812 70.5592 66.1367 70.905C67.1558 71.1171 67.9305 71.6106 68.4378 72.3668C68.922 73.0862 69.1525 74.0454 69.1249 75.2075C69.1064 76.0145 68.9266 76.6923 68.5992 77.2273C68.447 77.4717 68.2671 77.6838 68.0688 77.8544C68.2441 78.0481 68.3824 78.274 68.4747 78.5277C68.5669 78.7813 68.6914 79.2747 68.7052 80.6074H68.7098C68.7144 80.6074 68.7237 80.6074 69.4799 80.6627C69.7843 80.6858 70.0149 80.944 70.001 81.2484C70.001 81.2668 70.001 81.3729 70.001 81.479C70.001 81.5896 70.001 81.7049 70.001 81.7326C69.9964 81.9539 69.9826 82.1799 69.9641 82.4197H69.9872C69.9964 82.3367 70.0056 82.2122 70.0102 82.0323L70.1809 75.3089C70.1901 74.9907 70.1763 74.8201 70.1624 74.7325C70.1348 74.7233 70.1025 74.714 70.0564 74.7048L69.7059 74.631C69.443 74.5757 69.254 74.3359 69.2632 74.0684L69.3093 72.3207C69.3139 72.1501 69.3923 71.9933 69.5307 71.8873C69.6598 71.7858 69.8166 71.7443 70.0056 71.7858C72.5419 72.4129 75.0782 73.1323 77.5453 73.9301C77.7805 74.0039 77.9372 74.2298 77.9326 74.4789L77.845 78.3201C77.8404 78.4862 77.7666 78.6429 77.6329 78.7444C77.5038 78.8458 77.3285 78.8874 77.1717 78.8551C76.7982 78.7767 76.4201 78.7029 76.042 78.6291C75.8667 78.5968 75.7238 78.4816 75.65 78.3294C75.6362 78.8505 75.6223 79.5053 75.6039 80.0955C75.6361 80.0356 75.6823 79.9803 75.7376 79.9341C75.8529 79.8373 76.0097 79.7958 76.1619 79.8096L77.347 79.9664C77.6283 80.0033 77.8404 80.2477 77.8312 80.5336L77.7804 82.7379C77.8173 82.6825 77.9003 82.535 77.9926 82.2122C78.6797 79.7635 79.3575 77.4624 80.0124 75.3689C80.0585 75.2259 80.1645 75.1014 80.2983 75.0368C80.432 74.9677 80.598 74.9584 80.7364 75.0092C81.5572 75.2997 82.4149 75.6179 83.2865 75.9499C83.4617 76.0191 83.5908 76.1666 83.6323 76.3511C84.1626 78.6983 84.7022 80.861 85.2279 82.7748C85.3016 83.0284 85.3524 83.1575 85.38 83.2175C85.4031 83.2221 85.44 83.2267 85.4815 83.2267L85.8596 83.2497C86.1548 83.2682 86.3853 83.5126 86.3853 83.8077V84.8407C86.3853 84.9882 86.3254 85.1358 86.2193 85.2372C86.1132 85.3387 85.9703 85.3986 85.8227 85.3986C85.8227 85.3986 85.8227 85.3986 81.4373 85.3571C81.2897 85.3571 81.1468 85.2972 81.0407 85.1911C80.9393 85.2926 80.7963 85.3525 80.6487 85.3525L77.4208 85.3295C77.3746 85.3295 77.3285 85.3203 77.2916 85.3064C77.2501 85.3156 77.2086 85.3249 77.1671 85.3249C74.6263 85.3064 72.0854 85.288 69.5491 85.2741C69.4015 85.2741 69.254 85.2096 69.1479 85.1035C69.1156 85.0712 69.088 85.0297 69.0649 84.9836C68.6683 85.4033 68.1611 85.6016 67.58 85.6016ZM65.4772 83.5679L65.6433 84.0475C65.6986 84.2089 65.7632 84.3565 65.8369 84.4856C66.0813 84.9098 66.584 85.4217 67.58 85.4217C68.1703 85.4217 68.6545 85.2096 69.0188 84.7853L69.1387 84.647L69.1802 84.8268C69.1986 84.9098 69.2263 84.9698 69.2678 85.0113C69.337 85.0851 69.4384 85.1266 69.5353 85.1266C72.0761 85.1404 74.6124 85.1589 77.1533 85.1773C77.1856 85.1773 77.2132 85.1681 77.2455 85.1589L77.2732 85.1496L77.3101 85.1542C77.3562 85.1681 77.3885 85.1773 77.4115 85.1773L80.6395 85.2004C80.7686 85.2004 80.8885 85.1358 80.9577 85.0297L81.0361 84.9098L81.1145 85.0297C81.1283 85.0528 81.1468 85.0758 81.1652 85.0943C81.2344 85.1681 81.3312 85.2096 81.4327 85.2096C81.4327 85.2096 85.7997 85.2511 85.8135 85.2511C85.9103 85.2511 86.0072 85.2096 86.081 85.1404C86.1501 85.0712 86.1916 84.9698 86.1916 84.8729V83.84C86.1916 83.6417 86.0349 83.4757 85.8366 83.4619L85.4584 83.4388C85.3939 83.4342 85.3524 83.4296 85.3247 83.4204H85.274L85.2325 83.3742C85.2048 83.3327 85.1356 83.199 85.0388 82.8485C84.5131 80.9302 83.9736 78.7675 83.4432 76.4156C83.4156 76.2911 83.328 76.1897 83.2081 76.1436C82.3365 75.8115 81.4788 75.4934 80.6626 75.2028C80.5703 75.166 80.4597 75.1752 80.3674 75.2213C80.2752 75.2674 80.206 75.3504 80.1738 75.4473C79.5236 77.5362 78.8411 79.8373 78.154 82.286C78.0433 82.6733 77.9419 82.8393 77.8911 82.8993C77.8404 82.9592 77.7989 82.9823 77.7436 82.9823L77.5775 82.973L77.6329 80.5521C77.6375 80.3584 77.4992 80.1924 77.3055 80.1693L76.125 80.0125C76.1111 80.0125 76.0927 80.0079 76.0742 80.0079C75.9866 80.0079 75.9036 80.0402 75.8344 80.0955C75.7514 80.1601 75.7053 80.2569 75.6961 80.363C75.6592 80.921 75.6085 81.3498 75.5393 81.6726L75.3595 81.6542C75.3595 81.6542 75.3595 81.6496 75.4655 77.3887L75.6454 77.3748C75.6823 77.5869 75.7145 77.8406 75.7514 78.1403C75.7699 78.3063 75.8898 78.4354 76.0558 78.4677C76.4339 78.5415 76.8074 78.6199 77.1856 78.6937C77.287 78.7121 77.4069 78.6891 77.4945 78.6199C77.5822 78.5507 77.6329 78.4447 77.6375 78.334L77.7251 74.4927C77.7297 74.3267 77.6237 74.1745 77.4623 74.1238C74.9952 73.326 72.4635 72.6066 69.9365 71.9841C69.812 71.9564 69.7059 71.9841 69.6183 72.0533C69.526 72.1224 69.4707 72.2285 69.4707 72.3438L69.4246 74.0915C69.42 74.2713 69.5445 74.4327 69.7243 74.4696L70.0748 74.5434C70.1301 74.5572 70.1716 74.5665 70.2039 74.5757C70.2132 74.5803 70.2178 74.5803 70.2224 74.5803H70.2962L70.31 74.6541C70.3238 74.7279 70.3515 74.9123 70.3423 75.3274L70.1716 82.0554C70.167 82.2583 70.1532 82.4289 70.1348 82.5442L70.1209 82.618L70.0471 82.6226C70.0287 82.6226 70.0056 82.6226 69.978 82.6226L69.7428 82.6134L69.752 82.5165C69.7751 82.2445 69.7889 81.9954 69.7981 81.7464C69.7981 81.7188 69.7981 81.6081 69.7981 81.4974C69.7981 81.3821 69.7981 81.2714 69.7981 81.253C69.8073 81.0501 69.6552 80.8749 69.4477 80.861C69.4477 80.861 68.7191 80.8103 68.6868 80.8057C68.6637 80.8057 68.636 80.8057 68.613 80.8149L68.5023 80.838V80.7273C68.4931 79.3485 68.3732 78.8597 68.281 78.6107C68.1841 78.3478 68.0412 78.1219 67.8475 77.9328L67.7737 77.859L67.8567 77.7945C68.0735 77.6284 68.2625 77.4117 68.4239 77.1535C68.7375 76.6462 68.9081 75.996 68.9266 75.2213C68.9542 74.0961 68.7329 73.1738 68.2717 72.4867C67.7876 71.772 67.0543 71.3062 66.0859 71.1033C64.4351 70.7575 62.7427 70.4439 61.0641 70.1718C60.9535 70.1534 60.8474 70.1856 60.7598 70.2548C60.6768 70.324 60.6261 70.4301 60.6214 70.5361L60.5799 72.5328C60.5753 72.7219 60.7183 72.8879 60.9073 72.9156L61.2716 72.9663C61.3131 72.9709 61.3454 72.9802 61.3685 72.9848C61.3777 72.9848 61.3869 72.9894 61.3962 72.9894H61.4699L61.4884 73.0585C61.5068 73.1369 61.5345 73.3491 61.5207 73.8655L61.3639 81.5066C61.3547 81.917 61.3316 82.1338 61.3085 82.2445L61.2947 82.3136L61.2255 82.3228C61.2025 82.3275 61.1748 82.3275 61.1333 82.3275L60.686 82.3182C60.6537 82.3182 60.6307 82.3136 60.6168 82.3136H60.5615L60.543 82.2675C60.5154 82.2122 60.4324 81.9908 60.3033 81.1193C59.8052 77.5132 59.3026 73.8425 58.7953 70.1165C58.7723 69.9505 58.6385 69.8167 58.4725 69.7937C57.5641 69.6692 56.6695 69.5585 55.8164 69.4617C55.6089 69.4386 55.4382 69.5723 55.4013 69.766C54.7142 73.386 54.0179 77.1442 53.3308 80.9394C53.2386 81.4375 53.1371 81.8064 53.0265 82.0093C53.0126 82.0369 52.9942 82.06 52.985 82.0784L53.0172 82.1661L52.6253 82.1614C52.533 82.1614 52.4362 82.2029 52.3624 82.2813C52.2933 82.3505 52.2518 82.4566 52.2471 82.558L52.2241 84.6885C52.2241 84.7899 52.261 84.8868 52.3348 84.9606C52.4039 85.0297 52.5008 85.0712 52.6022 85.0712L55.8302 85.0805C55.9593 85.0805 56.0792 85.0159 56.1484 84.9052L56.2222 84.7853L56.3006 84.9052C56.3144 84.9283 56.3328 84.9513 56.3513 84.9698C56.4205 85.0436 56.5173 85.0805 56.6187 85.0805L65.0484 85.1127C65.2513 85.1127 65.4219 84.9467 65.4265 84.7438L65.4772 83.5679ZM81.0545 83.4572L80.9854 83.3374C80.9208 83.2267 80.8055 83.1529 80.6764 83.1437C80.6764 83.1437 80.2983 83.1206 80.2937 83.1206L80.1876 83.1114L80.2153 83.0099C80.2291 82.95 80.2522 82.8762 80.2798 82.784L80.4366 82.226L81.7831 82.3874L81.797 82.4473C81.797 82.4473 81.9584 83.093 81.963 83.1022L81.9907 83.2221L81.8708 83.2128C81.8477 83.2128 81.4834 83.1898 81.4511 83.1898C81.3543 83.1898 81.2667 83.2267 81.1929 83.2912C81.1744 83.3097 81.1606 83.3281 81.1422 83.3466L81.0545 83.4572ZM80.4228 82.9454C80.5335 82.95 80.6902 82.9592 80.6902 82.9592C80.8424 82.9684 80.9808 83.0376 81.0776 83.1437C81.1837 83.0514 81.3128 83.0007 81.4511 83.0007C81.4557 83.0007 81.631 83.0099 81.7555 83.0192C81.7186 82.8808 81.6632 82.6549 81.6356 82.5488L80.5703 82.4197L80.4551 82.8255C80.4458 82.8762 80.432 82.9131 80.4228 82.9454ZM74.4649 82.8163C74.3772 82.8163 74.2804 82.8163 74.1789 82.807L73.2751 82.7655L73.3443 79.9249L73.4872 80.0356C73.5472 80.0817 73.5702 80.1324 73.5795 80.1601C73.6302 80.2754 73.7132 80.6028 73.704 81.5574C73.704 81.7556 73.8515 81.9216 74.0498 81.9355C74.0498 81.9355 74.9491 82.0139 74.9859 82.0185C75.0736 82.0185 75.1658 81.9862 75.2303 81.9216C75.2719 81.8848 75.3041 81.8387 75.3272 81.7833L75.5024 81.8386C75.4425 82.0969 75.3687 82.3136 75.2857 82.4842C75.1981 82.6549 75.0966 82.7148 75.0274 82.7425C74.9859 82.7701 74.843 82.8163 74.4649 82.8163ZM73.4596 82.5903L74.1836 82.6226C74.285 82.6272 74.3772 82.6318 74.4649 82.6318C74.8338 82.6318 74.9491 82.5903 74.9629 82.5811C75.009 82.5626 75.0689 82.5257 75.1289 82.4105C75.1658 82.3321 75.2027 82.2445 75.235 82.143C75.1612 82.1799 75.0736 82.1983 74.9859 82.1983C74.9813 82.1983 74.9675 82.1983 74.036 82.1153C73.7455 82.0877 73.5195 81.8433 73.5241 81.5527C73.5287 81.2253 73.5195 80.9809 73.5057 80.7919L73.4596 82.5903ZM65.3989 82.535L65.2697 82.475C65.2282 82.4566 65.1775 82.4427 65.1314 82.4427L64.721 82.4289C64.6795 82.4289 64.6472 82.4243 64.6241 82.4197L64.555 82.4105L64.5457 82.3459C64.5273 82.2445 64.5135 82.0416 64.5227 81.6311L64.5826 78.9934L64.827 79.0165C65.0899 79.0395 65.2513 79.1179 65.3112 79.2424C65.3527 79.33 65.4542 79.6575 65.4265 80.778L65.3989 81.8894C65.3942 82.0646 65.3942 82.2306 65.3989 82.3874V82.535ZM64.7164 82.2491H64.721L65.1314 82.2629C65.1591 82.2629 65.1821 82.2675 65.2098 82.2721C65.2098 82.1476 65.2098 82.0185 65.2144 81.8894L65.2421 80.7826C65.2697 79.6206 65.1591 79.3577 65.1452 79.33C65.1176 79.2701 64.993 79.224 64.8086 79.2055L64.7579 79.2009L64.7025 81.6404C64.6979 81.9632 64.7071 82.1476 64.7164 82.2491ZM56.2775 82.5119L56.2037 82.3874C56.1345 82.2767 56.01 82.2029 55.8809 82.2029C55.8809 82.2029 55.4982 82.1937 55.489 82.1937L55.4013 82.1891L55.4059 82.1015C55.4106 82.0277 55.4152 81.9493 55.4244 81.8709C55.4428 81.751 55.4705 81.5896 55.5074 81.3729L55.6965 80.2846L57.0061 80.3399L57.1952 81.6035C57.209 81.6957 57.2136 81.7879 57.2228 81.8801C57.2274 81.9632 57.2321 82.0462 57.2321 82.1338V82.2214H57.1444C57.1122 82.2214 57.0753 82.2214 57.0338 82.2214C57.0292 82.2214 56.9185 82.2214 56.8216 82.2168L56.6833 82.2122C56.5865 82.2122 56.4896 82.2491 56.4205 82.3182C56.402 82.3367 56.3836 82.3597 56.3651 82.3828L56.2775 82.5119ZM55.5904 82.0139C55.7057 82.0139 55.8855 82.0185 55.8855 82.0185C56.0377 82.0231 56.1807 82.0877 56.2867 82.1937C56.3928 82.0923 56.5311 82.0369 56.6741 82.0369C56.6741 82.0369 56.7386 82.0369 56.8124 82.0416L57.0246 82.0462C57.0292 82.0462 57.0338 82.0462 57.043 82.0462C57.043 81.9954 57.0384 81.9447 57.0384 81.8986C57.0338 81.811 57.0245 81.7234 57.0153 81.6357L56.8493 80.5244L55.8533 80.4829L55.6919 81.4144C55.6504 81.6265 55.6227 81.7879 55.6088 81.9032C55.5996 81.9355 55.595 81.977 55.5904 82.0139ZM81.2759 80.2754L80.9715 80.22L81.1237 79.5929L81.2759 80.2754ZM73.3996 77.7022L73.4596 75.3227L74.1328 75.4888C74.6355 75.6133 74.8568 75.7378 74.9398 75.8023C75.0505 75.8807 75.1473 75.9822 75.235 76.1159L75.3641 76.305L74.2942 76.0698C74.1836 76.0467 74.0683 76.0744 73.9807 76.139C73.893 76.2081 73.8377 76.3096 73.8331 76.4249V76.5263C73.8146 77.2734 73.7086 77.5316 73.6625 77.61C73.6302 77.6607 73.5933 77.693 73.5011 77.7022H73.3996ZM73.6394 75.5579L73.5979 77.1765C73.621 77.0243 73.644 76.8122 73.6532 76.5217V76.4156C73.6579 76.2496 73.7409 76.0928 73.87 75.9914C73.9991 75.8899 74.1697 75.8531 74.3311 75.8853L74.9168 76.0145C74.8891 75.9914 74.8614 75.9683 74.8338 75.9453C74.7738 75.8992 74.5755 75.7839 74.0867 75.664L73.6394 75.5579ZM56.5911 77.4486L56.1807 77.4255L56.402 76.0052L56.5911 77.4486ZM65.0945 76.4571C65.0345 76.4571 64.9746 76.4525 64.91 76.4433L64.6149 76.411L64.6795 73.5935L64.9608 73.6396C65.2651 73.6903 65.4634 73.8102 65.5649 74.0039C65.6894 74.2391 65.7493 74.6725 65.7355 75.2628C65.717 75.9407 65.5925 76.2081 65.5141 76.305C65.4865 76.3465 65.3988 76.4571 65.0945 76.4571ZM64.804 76.2496L64.9285 76.2635C65.1498 76.2911 65.3158 76.2681 65.3712 76.1943C65.4127 76.1436 65.5372 75.9315 65.551 75.2628C65.5695 74.5204 65.4634 74.2114 65.3989 74.0915C65.3527 73.9993 65.2513 73.8748 64.9239 73.8194L64.8547 73.8102L64.804 76.2496Z" fill="white"/>
<path d="M4.57912 84.8315C4.57451 84.4165 4.56529 84.0014 4.56067 83.5864C4.66674 83.5818 4.77741 83.5726 4.88347 83.568C5.15554 83.5541 5.32155 83.5264 5.3815 83.4849C5.44145 83.4434 5.46912 83.3697 5.46912 83.2636C5.46912 83.1944 5.46451 83.1253 5.45067 83.0607C5.44145 82.9961 5.42762 82.9362 5.41378 82.8762C5.32155 82.5581 5.23394 82.2445 5.14171 81.9355C4.50073 82.0139 3.85974 82.0923 3.21876 82.1753C3.14497 82.4474 3.0758 82.7195 3.00202 82.9869C2.96513 83.1114 2.94207 83.2037 2.92824 83.2728C2.9144 83.342 2.90979 83.4019 2.90979 83.4573C2.90979 83.5264 2.95591 83.5818 3.04352 83.6141C3.13114 83.651 3.25565 83.6602 3.41705 83.651C3.53694 83.6417 3.65223 83.6371 3.77212 83.6279C3.77674 84.0291 3.78135 84.4303 3.78596 84.8315C2.7115 84.8407 1.63705 84.8499 0.562592 84.8591C0.562592 84.5133 0.562592 84.172 0.562592 83.8262C0.650208 83.8216 0.742436 83.817 0.830053 83.8077C1.0099 83.7939 1.16207 83.7294 1.28658 83.5956C1.41109 83.4665 1.51715 83.259 1.60477 82.9685C2.22269 80.9717 2.82218 78.7905 3.40782 76.448C4.25171 76.1252 5.0956 75.8116 5.94409 75.5118C6.53896 77.6469 7.14306 79.9342 7.75637 82.3552C7.88088 82.8347 7.99155 83.1253 8.08839 83.2221C8.18523 83.3189 8.33741 83.365 8.54953 83.3558C8.67404 83.3512 8.79855 83.342 8.92767 83.3374C8.93689 83.8216 8.95073 84.3058 8.95995 84.79C7.49814 84.8084 6.03632 84.8223 4.57912 84.8315ZM4.78663 80.7089C4.55606 79.8512 4.3301 79.0211 4.09953 78.2095C3.91047 79.1364 3.7214 80.0448 3.53233 80.9302C3.94736 80.8565 4.367 80.7827 4.78663 80.7089Z" fill="white"/>
<path d="M12.709 73.3631C12.7228 73.898 12.7367 74.4376 12.7505 74.9725C12.6168 75.0048 12.4784 75.037 12.3447 75.0739C12.1095 75.1339 11.9527 75.2169 11.8836 75.3183C11.8144 75.4244 11.7821 75.678 11.7913 76.0838C11.7913 76.1115 11.7913 76.1392 11.7913 76.1668C11.8513 78.5002 11.9112 80.8336 11.9666 83.1669C12.128 83.1577 12.2894 83.1531 12.4508 83.1439C12.8981 83.1208 13.2117 83.0701 13.3961 82.9871C13.576 82.9041 13.7189 82.7611 13.825 82.5628C13.9541 82.3184 14.0509 81.9864 14.1109 81.5714C14.1708 81.1564 14.2031 80.5845 14.2077 79.8559C14.5812 79.8144 14.9502 79.7683 15.3237 79.7268C15.3652 81.4008 15.4113 83.0793 15.4528 84.7533C13.1886 84.7671 10.9198 84.7809 8.6556 84.7994C8.64637 84.3198 8.63254 83.8402 8.62332 83.3606C8.74321 83.356 8.86311 83.3468 8.983 83.3422C9.23202 83.3283 9.39803 83.273 9.46259 83.1715C9.53176 83.0701 9.55943 82.8211 9.55021 82.4153C9.50409 80.52 9.46259 78.6247 9.41648 76.7248C9.40725 76.319 9.36575 76.0792 9.29658 76.0054C9.2228 75.9317 9.06601 75.927 8.81238 76.0008C8.69249 76.0331 8.57259 76.0654 8.45731 76.1023C8.44808 75.6273 8.43425 75.1477 8.42503 74.6727C9.84995 74.207 11.2749 73.7689 12.709 73.3631Z" fill="white"/>
<path d="M20.1103 71.5275C20.1241 72.1501 20.138 72.768 20.1564 73.3905C20.0181 73.4136 19.8844 73.4413 19.746 73.4643C19.5062 73.5104 19.354 73.5888 19.2803 73.7041C19.2111 73.8194 19.1788 74.1145 19.1926 74.5849C19.1926 74.6172 19.1926 74.6494 19.1926 74.6817C19.2572 77.4024 19.3264 80.1278 19.3909 82.8485C19.5523 82.8439 19.7137 82.8347 19.8751 82.8301C20.3224 82.8162 20.6406 82.7609 20.8205 82.6641C21.0003 82.5718 21.1433 82.4104 21.2493 82.1845C21.3784 81.9078 21.4753 81.5297 21.5352 81.0547C21.5952 80.5797 21.6275 79.9295 21.6321 79.0948C22.0056 79.0626 22.3791 79.0303 22.7526 79.0026C22.7941 80.9025 22.8356 82.807 22.8771 84.7069C20.613 84.7161 18.3441 84.73 16.0799 84.7438C16.0661 84.1674 16.0523 83.5863 16.0338 83.0099C16.1537 83.0053 16.2736 83.0007 16.3935 82.9961C16.6471 82.9868 16.8085 82.9223 16.8777 82.807C16.9469 82.6917 16.9746 82.3874 16.9607 81.9078C16.9054 79.6436 16.8454 77.3794 16.7901 75.1152C16.7763 74.631 16.7348 74.3405 16.661 74.2436C16.5872 74.1468 16.4258 74.1237 16.1676 74.1791C16.0477 74.2067 15.9278 74.2298 15.8079 74.2575C15.794 73.681 15.7802 73.1092 15.7618 72.5328C17.2097 72.1731 18.6577 71.8365 20.1103 71.5275Z" fill="white"/>
<path d="M26.9905 84.6976C26.9767 84.0197 26.9675 83.3372 26.9536 82.6594C27.0735 82.6547 27.1934 82.6547 27.3179 82.6501C27.5577 82.6455 27.7145 82.5856 27.7883 82.4703C27.8621 82.355 27.8943 82.0322 27.8851 81.4973C27.8851 81.4604 27.8851 81.4281 27.8851 81.3912C27.839 78.7535 27.7929 76.1158 27.7468 73.4781C27.7376 72.9155 27.6961 72.5742 27.6223 72.4497C27.5485 72.3298 27.3825 72.2837 27.1242 72.316C27.0043 72.3298 26.8891 72.3483 26.7692 72.3621C26.7553 71.6842 26.7461 71.011 26.7323 70.3331C28.1987 70.1164 29.6651 69.9227 31.1362 69.7659C32.0953 69.6598 32.8009 69.8812 33.2528 70.4161C33.7047 70.951 33.9399 71.8364 33.9537 73.0676C33.9629 73.9069 33.8384 74.6401 33.5894 75.2673C33.3358 75.8898 32.9715 76.3786 32.4873 76.7245C33.1237 76.9735 33.5986 77.4162 33.9168 78.0341C34.2304 78.6567 34.3964 79.4821 34.4056 80.5058C34.4195 81.9953 34.1843 83.0698 33.7001 83.7154C33.2159 84.3656 32.3905 84.6838 31.233 84.6838C29.8127 84.6884 28.4016 84.693 26.9905 84.6976ZM30.1862 75.9728C30.3199 75.9636 30.4537 75.9544 30.5828 75.9452C30.9655 75.9175 31.2468 75.7376 31.4175 75.3964C31.5881 75.0552 31.6711 74.5295 31.6619 73.8285C31.6526 73.1322 31.565 72.6388 31.3944 72.3529C31.2238 72.067 30.9471 71.9425 30.5597 71.9794C30.4168 71.9932 30.2692 72.007 30.1217 72.0209C30.1447 73.3351 30.1678 74.654 30.1862 75.9728ZM30.2877 82.6086C30.4445 82.604 30.5966 82.604 30.7534 82.5994C31.1915 82.5902 31.5051 82.3965 31.6895 82.0184C31.874 81.6356 31.9616 81.0131 31.9478 80.1461C31.9385 79.353 31.8279 78.7719 31.625 78.403C31.4175 78.0341 31.0993 77.8635 30.675 77.8866C30.5228 77.8958 30.3707 77.905 30.2185 77.9096C30.2415 79.4775 30.2646 81.0408 30.2877 82.6086Z" fill="white"/>
<path d="M38.5605 84.6703C38.5559 83.9371 38.5513 83.2085 38.5467 82.4753C38.6573 82.4753 38.7634 82.4753 38.8741 82.4753C39.1462 82.4753 39.3168 82.443 39.3767 82.3784C39.4367 82.3139 39.469 82.194 39.469 82.0095C39.469 81.8896 39.4643 81.7743 39.4551 81.6637C39.4459 81.553 39.4321 81.4469 39.4182 81.3409C39.3306 80.7875 39.2384 80.2388 39.1508 79.6854C38.5006 79.6946 37.8457 79.7038 37.1955 79.7177C37.1218 80.2065 37.0526 80.6999 36.9788 81.1887C36.9419 81.4147 36.9142 81.5899 36.905 81.7144C36.8912 81.8435 36.8866 81.9588 36.8866 82.0603C36.8866 82.194 36.9327 82.3 37.0203 82.3738C37.1079 82.4476 37.2324 82.4845 37.3938 82.4845C37.5137 82.4845 37.6336 82.4845 37.7535 82.4799C37.7581 83.2085 37.7627 83.9371 37.7673 84.6703C36.6929 84.6703 35.6138 84.6749 34.5394 84.6749C34.5301 83.9555 34.5255 83.2362 34.5163 82.5168C34.6039 82.5168 34.6962 82.5122 34.7838 82.5122C34.9636 82.5076 35.1158 82.3877 35.2403 82.1386C35.3648 81.8942 35.4663 81.4884 35.5539 80.9305C36.1534 77.0661 36.7621 73.1741 37.3754 69.259C38.2608 69.2129 39.1508 69.176 40.0362 69.153C40.6264 73.0265 41.2074 76.9185 41.7793 80.8198C41.8945 81.5899 42.0006 82.0556 42.0975 82.217C42.1943 82.3784 42.3465 82.4614 42.5586 82.4614C42.6831 82.4614 42.8122 82.4614 42.9367 82.4614C42.9367 83.1993 42.9367 83.9325 42.9367 84.6703C41.4841 84.6703 40.0223 84.6703 38.5605 84.6703ZM38.7957 77.4765C38.5651 75.9179 38.3345 74.3638 38.104 72.8144C37.9057 74.3823 37.7074 75.9455 37.5137 77.5042C37.9426 77.495 38.3668 77.4857 38.7957 77.4765Z" fill="white"/>
<path d="M42.969 72.768C42.826 72.27 42.6739 71.901 42.5079 71.6659C42.3418 71.4307 42.162 71.3108 41.9637 71.3154C41.8945 71.3154 41.8254 71.3154 41.7562 71.3154C41.7562 70.5822 41.7516 69.8536 41.7516 69.1204C43.1811 69.1019 44.6107 69.1111 46.0448 69.148C46.0402 69.8766 46.0402 70.6098 46.0356 71.3384C45.9526 71.3384 45.8696 71.3338 45.7866 71.3338C45.6159 71.3292 45.4868 71.3753 45.4084 71.463C45.33 71.5506 45.2885 71.6935 45.2885 71.8918C45.2885 71.9748 45.2931 72.0624 45.3116 72.1547C45.3254 72.2469 45.3577 72.3668 45.3992 72.519C45.6851 73.5196 45.971 74.5157 46.2523 75.5164C46.5428 74.5157 46.8334 73.5196 47.1285 72.5236C47.1608 72.4221 47.1884 72.2976 47.2069 72.1593C47.2253 72.0209 47.2392 71.8918 47.2392 71.7719C47.2392 71.652 47.2023 71.5552 47.1193 71.4814C47.0409 71.4076 46.9302 71.3661 46.7918 71.3661C46.6996 71.3615 46.612 71.3615 46.5198 71.3569C46.5244 70.6283 46.5244 69.8997 46.529 69.1665C47.6265 69.1988 48.7286 69.2495 49.8262 69.314C49.8215 70.038 49.8169 70.762 49.8077 71.4814C49.7293 71.4768 49.6555 71.4722 49.5771 71.4676C49.4111 71.4583 49.2589 71.5552 49.1252 71.7581C48.9915 71.961 48.8301 72.3668 48.641 72.9709C48.083 74.7878 47.5297 76.6185 46.9763 78.4538C46.9717 79.3484 46.9671 80.2431 46.9625 81.1377C46.9579 81.7325 46.9948 82.1015 47.0685 82.249C47.1423 82.3966 47.3083 82.4704 47.562 82.4704C47.6957 82.4704 47.8248 82.4704 47.9585 82.475C47.9539 83.2082 47.9493 83.9368 47.9447 84.67C46.4829 84.67 45.0165 84.6654 43.5546 84.6654C43.5546 83.9276 43.5546 83.1944 43.5546 82.4565C43.693 82.4565 43.8267 82.4565 43.9651 82.4565C44.2049 82.4565 44.3616 82.3966 44.44 82.2721C44.5184 82.1476 44.5599 81.7648 44.5599 81.1238C44.5599 80.2246 44.5645 79.33 44.5645 78.4308C44.0342 76.5447 43.5039 74.654 42.969 72.768Z" fill="white"/>
<path d="M56.6418 84.6887C56.651 83.9924 56.6649 83.296 56.6741 82.5997C56.7848 82.5997 56.8908 82.6043 57.0015 82.6043C57.2736 82.6089 57.4442 82.5859 57.5041 82.5259C57.5687 82.466 57.601 82.3507 57.601 82.1847C57.601 82.0694 57.601 81.9633 57.5917 81.8573C57.5825 81.7558 57.5779 81.6544 57.5641 81.5529C57.4857 81.0272 57.4073 80.5015 57.3335 79.9758C56.6833 79.9482 56.0331 79.9205 55.3829 79.8974C55.2999 80.3678 55.2169 80.8382 55.1339 81.3085C55.0924 81.5253 55.0647 81.6959 55.0463 81.8158C55.0324 81.9403 55.0232 82.051 55.0186 82.1524C55.0186 82.2815 55.0601 82.383 55.1477 82.4568C55.2353 82.5305 55.3598 82.5674 55.5212 82.572C55.6411 82.572 55.761 82.5767 55.8809 82.5767C55.8717 83.2776 55.8579 83.9785 55.8486 84.6795C54.7742 84.6748 53.6951 84.6748 52.6207 84.6702C52.6299 83.9555 52.6391 83.2361 52.6437 82.5213C52.7313 82.5213 52.8236 82.5259 52.9112 82.5259C53.0956 82.5305 53.2478 82.4107 53.3769 82.1709C53.5061 81.9311 53.6167 81.5391 53.7182 80.9949C54.4007 77.2182 55.0924 73.4922 55.7887 69.8215C56.6741 69.923 57.5549 70.0337 58.4356 70.1536C58.9429 73.8796 59.4455 77.5502 59.9436 81.1564C60.045 81.8665 60.1418 82.3 60.2341 82.4475C60.3263 82.5997 60.4785 82.6781 60.686 82.6827C60.8105 82.6873 60.9396 82.6873 61.0641 82.6919C61.0503 83.3606 61.0365 84.0246 61.0226 84.6933C59.5654 84.6979 58.1036 84.6933 56.6418 84.6887ZM57.0245 77.8546C56.8263 76.3559 56.6326 74.8526 56.4297 73.34C56.1991 74.8111 55.9685 76.2913 55.7426 77.7808C56.1714 77.8039 56.6003 77.8269 57.0245 77.8546Z" fill="white"/>
<path d="M61.7466 81.5161C61.7973 78.9706 61.8527 76.4205 61.9034 73.875C61.9126 73.3309 61.8896 72.9943 61.8204 72.8559C61.7512 72.7176 61.5898 72.6346 61.3316 72.5977C61.2117 72.5792 61.0872 72.5608 60.9673 72.547C60.9811 71.8829 60.995 71.2143 61.0088 70.5502C62.6827 70.8223 64.3521 71.1313 66.0122 71.4771C66.8929 71.6616 67.5432 72.0812 67.9628 72.7038C68.3824 73.3263 68.5807 74.161 68.553 75.217C68.5346 75.9317 68.387 76.5082 68.1103 76.9601C67.8337 77.412 67.4463 77.7025 66.9575 77.827C67.4463 77.993 67.7737 78.302 67.9351 78.7447C68.0965 79.1874 68.1611 80.165 68.1242 81.6821C68.115 82.1387 68.1288 82.4569 68.1657 82.6367C68.2026 82.8165 68.2764 82.9042 68.3778 82.9088C68.4747 82.9134 68.5484 82.8073 68.6038 82.5952C68.6545 82.3831 68.6868 82.0603 68.7006 81.6268C68.7006 81.5853 68.7006 81.5115 68.7006 81.4147C68.7006 81.3178 68.7006 81.2441 68.7006 81.1933C68.945 81.2118 69.1894 81.2302 69.4292 81.2441C69.4292 81.2994 69.4292 81.3824 69.4292 81.4931C69.4292 81.6038 69.4292 81.6868 69.4292 81.7421C69.4015 82.8995 69.2401 83.7342 68.9496 84.2553C68.6591 84.7764 68.2072 85.0439 67.5893 85.0439C66.9344 85.0439 66.4641 84.7994 66.1736 84.2968C65.8877 83.7942 65.7539 82.9918 65.7816 81.8989C65.7908 81.53 65.8 81.1611 65.8093 80.7921C65.8323 79.9068 65.777 79.3349 65.6571 79.0813C65.5326 78.8277 65.2697 78.6801 64.8685 78.6432C64.6518 78.6248 64.4351 78.6017 64.2229 78.5833C64.1999 79.5978 64.1768 80.6123 64.1538 81.6268C64.1445 82.1525 64.1722 82.4799 64.2414 82.609C64.3106 82.7382 64.4673 82.8027 64.7164 82.8119C64.8547 82.8165 64.9884 82.8212 65.1268 82.8258C65.1129 83.4575 65.0991 84.0893 65.0807 84.7257C63.6327 84.7164 62.1847 84.7118 60.7367 84.7072C60.7506 84.0386 60.7644 83.3699 60.7782 82.6967C60.8981 82.7013 61.018 82.7013 61.1425 82.7059C61.3962 82.7105 61.5576 82.6505 61.6359 82.526C61.6959 82.3969 61.7374 82.0603 61.7466 81.5161ZM64.2322 76.7433C64.4443 76.7664 64.6518 76.7941 64.8639 76.8171C65.3112 76.8725 65.6248 76.7756 65.8139 76.5404C66.0029 76.3053 66.0998 75.881 66.1136 75.2723C66.1321 74.6083 66.0583 74.1241 65.8969 73.8243C65.7355 73.5246 65.445 73.3355 65.0253 73.2663C64.7901 73.2248 64.5504 73.1833 64.3152 73.1464C64.2875 74.35 64.2598 75.549 64.2322 76.7433Z" fill="white"/>
<path d="M77.3516 74.4836C77.3239 75.7656 77.2916 77.0476 77.264 78.3249C76.8858 78.2465 76.5077 78.1727 76.1296 78.099C76.0696 77.5686 76.0005 77.1444 75.9267 76.8354C75.8529 76.5265 75.7607 76.2636 75.6454 76.0561C75.5163 75.8163 75.3549 75.6319 75.1612 75.4935C74.9721 75.3552 74.6585 75.2307 74.2251 75.1246C74.1559 75.1062 74.0821 75.0877 74.0129 75.0693C73.7086 74.9955 73.3996 74.9171 73.0953 74.8433C73.0676 75.8993 73.0399 76.9553 73.0123 78.0113C73.1045 78.0252 73.1967 78.0436 73.2889 78.0575C73.6117 78.1128 73.8423 78.0252 73.9807 77.8038C74.1144 77.5825 74.1928 77.1582 74.2112 76.5311C74.2112 76.4988 74.2112 76.4665 74.2158 76.4342C74.5156 76.4988 74.8153 76.5634 75.1105 76.6325C75.069 78.3019 75.0275 79.9712 74.9859 81.6405C74.6862 81.6128 74.3865 81.5852 74.0867 81.5621C74.0913 80.7782 74.0406 80.2617 73.9299 80.0081C73.8193 79.7591 73.5979 79.6115 73.2659 79.5654C73.1691 79.5515 73.0722 79.5423 72.98 79.5285C72.9477 80.7275 72.92 81.9264 72.8878 83.1254C73.312 83.1438 73.7363 83.1623 74.1605 83.1853C74.6539 83.2084 74.9952 83.1807 75.1842 83.0977C75.3733 83.0193 75.5209 82.8717 75.6269 82.6642C75.7468 82.4152 75.8437 82.1109 75.9128 81.7512C75.9866 81.3915 76.0373 80.935 76.0742 80.3862C76.4662 80.4369 76.8582 80.4923 77.2548 80.543C77.2225 81.9587 77.1902 83.3744 77.1579 84.7947C74.6217 84.7763 72.0808 84.7578 69.5399 84.744C69.5537 84.1583 69.5676 83.5727 69.586 82.987C69.7059 82.9916 69.8258 82.9963 69.9503 83.0009C70.1901 83.0101 70.3469 82.9686 70.4253 82.8764C70.5037 82.7841 70.5452 82.5167 70.559 82.0694C70.559 82.0417 70.559 82.0094 70.559 81.9817C70.6143 79.7683 70.6743 77.5548 70.7296 75.3413C70.7435 74.871 70.7158 74.5712 70.6466 74.4467C70.5774 74.3222 70.4207 74.23 70.1624 74.1747C70.0471 74.1516 69.9272 74.1239 69.812 74.1009C69.8258 73.5198 69.8396 72.9342 69.8581 72.3531C72.3713 72.9757 74.8707 73.6858 77.3516 74.4836Z" fill="white"/>
<path d="M81.4281 84.8317C81.4327 84.412 81.4419 83.9924 81.4465 83.5681C81.5526 83.5728 81.6633 83.582 81.7693 83.5866C82.0414 83.6004 82.2074 83.5958 82.2673 83.5635C82.3319 83.5313 82.3596 83.4667 82.3596 83.3652C82.3596 83.3007 82.3596 83.2361 82.3503 83.1716C82.3411 83.1116 82.3319 83.0517 82.3181 82.9917C82.2351 82.6781 82.1567 82.36 82.0737 82.0418C81.4327 81.9634 80.7917 81.885 80.1461 81.8112C80.0677 82.1017 79.9847 82.3922 79.9017 82.6828C79.8602 82.8165 79.8325 82.9225 79.8187 83.0009C79.8049 83.0793 79.7956 83.1485 79.7956 83.2131C79.7956 83.2961 79.8371 83.3606 79.9201 83.4114C80.0078 83.4621 80.1323 83.4897 80.2891 83.499C80.409 83.5036 80.5242 83.5128 80.6441 83.5174C80.6349 83.9509 80.6303 84.3844 80.6211 84.8178C79.5466 84.8086 78.4722 84.7994 77.3977 84.7948C77.4069 84.3106 77.4208 83.8264 77.43 83.3422C77.5176 83.3468 77.6098 83.3514 77.6975 83.356C77.8773 83.3652 78.0341 83.2915 78.1586 83.1393C78.2877 82.9871 78.3984 82.7335 78.4998 82.383C79.1823 79.9482 79.8556 77.6702 80.515 75.5535C81.3635 75.8533 82.2074 76.1668 83.0513 76.4896C83.5724 78.7907 84.1073 80.9443 84.6514 82.941C84.7621 83.333 84.8682 83.5728 84.9604 83.6558C85.0526 83.7434 85.2048 83.7895 85.4123 83.8033C85.5368 83.8125 85.6613 83.8218 85.7858 83.8264C85.7858 84.1722 85.7858 84.5135 85.7858 84.8593C84.3471 84.8547 82.8899 84.8409 81.4281 84.8317ZM81.7647 80.7414C81.5618 79.8145 81.3635 78.8691 81.1652 77.8961C80.9485 78.7492 80.7317 79.6254 80.5104 80.5246C80.93 80.5984 81.3451 80.6676 81.7647 80.7414Z" fill="white"/>
<path d="M17.0944 96C16.2875 96 15.6372 95.8202 15.1577 95.4651C14.6366 95.0777 14.3645 94.5105 14.3645 93.8234V91.4393H14.0002V93.556C14.0002 93.9987 13.9587 94.3399 13.8711 94.6027C13.7742 94.8933 13.6128 95.1469 13.3823 95.3544C13.1471 95.5758 12.8474 95.7372 12.5015 95.8432C12.1833 95.9401 11.8144 95.9908 11.404 95.9908C10.7169 95.9908 10.1405 95.8155 9.68854 95.4651C9.19974 95.0869 8.9415 94.5751 8.9415 93.9756C8.9415 93.5052 9.08906 93.1133 9.37497 92.8043C9.6701 92.4907 10.0667 92.3247 10.5186 92.3247C10.7676 92.3247 10.9843 92.3754 11.1734 92.4769V91.4347H10.5647C10.5094 91.4347 10.4679 91.3932 10.4679 91.3379V89.6778C10.4679 89.6224 10.5094 89.5809 10.5647 89.5809H23.0339C23.0708 89.5809 23.1031 89.5994 23.1169 89.6317L23.3567 90.0697V89.6778C23.3567 89.6224 23.3982 89.5809 23.4536 89.5809H33.0868C33.1421 89.5809 33.1836 89.6224 33.1836 89.6778V91.3379C33.1836 91.3932 33.1421 91.4347 33.0868 91.4347H32.3766C32.3628 91.4393 32.3397 91.4486 32.3028 91.467C32.2198 91.5131 32.1184 91.5823 32.0077 91.6745L31.3621 92.2325L32.4596 93.888C32.4873 93.9295 32.5104 93.9572 32.5242 93.971L33.3173 93.9802C33.3727 93.9802 33.4142 94.0217 33.4142 94.077V95.7418C33.4142 95.7971 33.3727 95.8386 33.3173 95.8386H23.5412C23.5043 95.8386 23.472 95.8202 23.4582 95.7879L23.057 95.0408V95.7418C23.057 95.7971 23.0155 95.8386 22.9601 95.8386H19.7783C19.7229 95.8386 19.6814 95.7971 19.6814 95.7418V94.8656C19.5477 95.1008 19.3679 95.3037 19.1465 95.4651C18.6531 95.8248 17.9798 96 17.0944 96ZM13.9034 91.2456H14.4613C14.5167 91.2456 14.5582 91.2872 14.5582 91.3425V93.8234C14.5582 94.4506 14.8072 94.9624 15.2776 95.3129C15.7203 95.6403 16.3336 95.8063 17.0991 95.8063C17.9429 95.8063 18.5793 95.6449 19.0405 95.3083C19.3586 95.0777 19.5754 94.7595 19.6907 94.3583C19.7045 94.3122 19.746 94.2846 19.7967 94.2892C19.8428 94.2938 19.8797 94.3353 19.8797 94.386V95.6495H22.8679V94.6627C22.8679 94.6166 22.8956 94.5797 22.9417 94.5705C22.9832 94.5566 23.0293 94.5797 23.0478 94.6166L23.6057 95.6495H33.2343V94.1785L32.4965 94.1693C32.4781 94.1693 32.4596 94.1647 32.4458 94.1554C32.4273 94.1462 32.3812 94.1093 32.3121 94.0033L31.1684 92.2786C31.1408 92.2371 31.15 92.1864 31.1869 92.1541L31.897 91.5408C32.0215 91.4347 32.1322 91.3563 32.2291 91.3056C32.2844 91.2733 32.3213 91.2641 32.3397 91.2595C32.349 91.2549 32.3628 91.2503 32.3766 91.2503H33.0084V89.7838H23.555V90.4571C23.555 90.5032 23.5273 90.5401 23.4812 90.5493C23.4397 90.5632 23.3936 90.5401 23.3752 90.5032L22.9832 89.7838H10.6662V91.2503H11.2749C11.3302 91.2503 11.3717 91.2918 11.3717 91.3471V92.6614C11.3717 92.6982 11.3533 92.7305 11.3164 92.749C11.2841 92.7674 11.2426 92.7628 11.2149 92.7397C11.0258 92.5968 10.7953 92.5276 10.5186 92.5276C10.1174 92.5276 9.77155 92.6706 9.51331 92.9473C9.25968 93.2193 9.13057 93.5652 9.13057 93.9848C9.13057 94.5197 9.36114 94.9855 9.79922 95.3221C10.2142 95.6449 10.7538 95.8063 11.3948 95.8063C11.7867 95.8063 12.1372 95.7602 12.4369 95.668C12.7551 95.5711 13.0272 95.419 13.2439 95.2207C13.4468 95.0362 13.5944 94.8103 13.6774 94.5474C13.7558 94.303 13.7973 93.9802 13.7973 93.5606V91.3471C13.8065 91.2918 13.848 91.2456 13.9034 91.2456ZM17.4034 94.2707C17.2881 94.2707 17.136 94.2569 17.0806 94.1785C17.0483 94.1278 16.9746 93.9802 16.9746 93.5744V91.3471C16.9746 91.2918 17.0161 91.2503 17.0714 91.2503H17.9061C17.9614 91.2503 18.0029 91.2918 18.0029 91.3471V93.639C18.0029 93.888 17.9568 94.0724 17.883 94.1508C17.8369 94.1923 17.717 94.2707 17.4034 94.2707ZM17.2374 94.0632C17.2512 94.0632 17.3066 94.077 17.4034 94.077C17.6755 94.077 17.74 94.0171 17.74 94.0125C17.7585 93.994 17.8046 93.888 17.8046 93.6344V91.4393H17.1636V93.5698C17.1636 93.9525 17.2328 94.0632 17.2374 94.0632C17.2328 94.0632 17.2374 94.0632 17.2374 94.0632ZM29.619 94.1785H29.2132C29.1579 94.1785 29.1164 94.137 29.1164 94.0817V93.911C29.1164 93.8834 29.1302 93.8557 29.1533 93.8373L29.3423 93.6897C29.3654 93.6712 29.3884 93.6666 29.4161 93.6712C29.4438 93.6759 29.4668 93.6897 29.4807 93.7127L29.6974 94.0309C29.7158 94.0586 29.7205 94.1001 29.702 94.1278C29.6836 94.1554 29.6513 94.1785 29.619 94.1785ZM29.31 93.9848H29.4392L29.3838 93.9018L29.3147 93.9572V93.9848H29.31ZM26.6216 94.1785H26.0359C25.9806 94.1785 25.9391 94.137 25.9391 94.0817V91.3471C25.9391 91.2918 25.9806 91.2503 26.0359 91.2503H26.6216C26.6769 91.2503 26.7184 91.2918 26.7184 91.3471V94.0817C26.7184 94.1324 26.6723 94.1785 26.6216 94.1785ZM26.1282 93.9848H26.5248V91.4393H26.1282V93.9848ZM22.6466 94.1785H22.3146C22.2592 94.1785 22.2177 94.137 22.2177 94.0817V93.4637C22.2177 93.4176 22.2454 93.3807 22.2915 93.3715C22.333 93.3623 22.3791 93.3807 22.3976 93.4176L22.7296 94.0355C22.7434 94.0632 22.7434 94.1001 22.7296 94.1324C22.7111 94.1601 22.6835 94.1785 22.6466 94.1785ZM22.4114 93.9848H22.4852L22.4114 93.8465V93.9848ZM20.4515 94.1785H19.8382C19.8106 94.1785 19.7829 94.1647 19.7644 94.1462C19.746 94.1232 19.7368 94.0955 19.7414 94.0724L19.7506 94.0079C19.7598 93.9249 19.7737 93.8511 19.7737 93.7681V91.3517C19.7737 91.2964 19.8152 91.2549 19.8705 91.2549H20.4515C20.5069 91.2549 20.5484 91.2964 20.5484 91.3517V94.0863C20.5484 94.1324 20.5069 94.1785 20.4515 94.1785ZM19.9535 93.9848H20.3593V91.4393H19.972V93.7635C19.972 93.8419 19.9627 93.9156 19.9535 93.9848ZM24.1683 91.8544C24.1361 91.8544 24.0992 91.8359 24.0853 91.8036L23.8594 91.3886C23.8409 91.3609 23.8455 91.324 23.8594 91.2918C23.8778 91.2641 23.9101 91.2456 23.9424 91.2456H24.1683C24.2237 91.2456 24.2652 91.2872 24.2652 91.3425V91.7575C24.2652 91.8036 24.2375 91.8405 24.1914 91.8497C24.1822 91.8544 24.1776 91.8544 24.1683 91.8544ZM29.2178 91.6745C29.204 91.6745 29.1901 91.6699 29.1763 91.6653C29.144 91.6515 29.121 91.6146 29.121 91.5777V91.3425C29.121 91.2872 29.1625 91.2456 29.2178 91.2456H29.4991C29.5406 91.2456 29.5775 91.2687 29.5913 91.3102C29.6052 91.3471 29.5913 91.3886 29.5637 91.4163L29.2824 91.6515C29.2639 91.6699 29.2409 91.6745 29.2178 91.6745Z" fill="white"/>
<path d="M58.3296 95.9953C57.2736 95.9953 56.4205 95.7002 55.7933 95.1238C55.7241 95.0592 55.655 94.9854 55.5858 94.907V95.7509C55.5858 95.8063 55.5443 95.8478 55.489 95.8478H41.0645C41.0368 95.8478 41.0138 95.8339 40.9953 95.8155C40.7509 95.9169 40.4696 95.9677 40.1607 95.9677C39.6534 95.9677 39.2568 95.8708 38.9525 95.6725V95.7509C38.9525 95.8063 38.911 95.8478 38.8556 95.8478H34.8576C34.8022 95.8478 34.7607 95.8063 34.7607 95.7509V94.0862C34.7607 94.0309 34.8022 93.9894 34.8576 93.9894H35.434V91.4439H34.8576C34.8022 91.4439 34.7607 91.4024 34.7607 91.347V89.6869C34.7607 89.6316 34.8022 89.5901 34.8576 89.5901H38.828C39.5704 89.5901 40.1284 89.7284 40.5342 90.0097C40.6679 90.102 40.8339 90.2495 40.9677 90.4617V89.6916C40.9677 89.6362 41.0092 89.5947 41.0645 89.5947H50.6378C50.6793 89.5947 50.7208 89.6224 50.73 89.6639L51.1681 91.2087L51.6384 89.6593C51.6523 89.6178 51.6892 89.5901 51.7307 89.5901H55.489C55.5443 89.5901 55.5858 89.6316 55.5858 89.6869V90.5308C55.655 90.4524 55.7241 90.3787 55.7979 90.3095C56.4251 89.7284 57.2828 89.4379 58.348 89.4379C59.2657 89.4379 60.0312 89.6639 60.6353 90.1112V89.6869C60.6353 89.6316 60.6768 89.5901 60.7321 89.5901H67.497C67.5524 89.5901 67.5939 89.6316 67.5939 89.6869V89.9175L67.6861 89.6547C67.6999 89.6178 67.7368 89.5901 67.7783 89.5901H70.2962C70.3377 89.5901 70.3745 89.6178 70.3884 89.6593L71.6842 93.8464C71.7026 93.9018 71.7165 93.9479 71.7303 93.9848L72.1914 93.9894V91.4439H71.615C71.5597 91.4439 71.5182 91.4024 71.5182 91.347V89.6869C71.5182 89.6316 71.5597 89.5901 71.615 89.5901H75.6131C75.6684 89.5901 75.7099 89.6316 75.7099 89.6869V91.347C75.7099 91.4024 75.6684 91.4439 75.6131 91.4439H75.0136V93.9709C75.2211 93.9617 75.2949 93.9479 75.318 93.9433C75.3456 93.934 75.3502 93.9294 75.3549 93.9294C75.3779 93.9064 75.4102 93.851 75.4425 93.7358C75.4701 93.6389 75.507 93.4545 75.5209 93.1132L75.5439 92.6705C75.5485 92.6198 75.59 92.5783 75.6408 92.5783H77.3424C77.3977 92.5783 77.4392 92.6198 77.4392 92.6751V95.7509C77.4392 95.8063 77.3977 95.8478 77.3424 95.8478H65.5741C65.5187 95.8478 65.4772 95.8063 65.4772 95.7509V95.6126L65.4219 95.7786C65.4081 95.8201 65.3712 95.8432 65.3297 95.8432H62.9087C62.8672 95.8432 62.8303 95.8155 62.8165 95.774L61.8619 92.7074C61.8619 92.712 61.8619 92.7166 61.8619 92.7166C61.8619 93.7265 61.5345 94.5335 60.8935 95.1238C60.2525 95.7002 59.3948 95.9953 58.3296 95.9953ZM55.4843 94.5289C55.5166 94.5289 55.5443 94.5427 55.5627 94.5704C55.678 94.7318 55.7979 94.8702 55.9178 94.9808C56.5081 95.525 57.3197 95.8017 58.325 95.8017C59.3441 95.8017 60.1557 95.525 60.7506 94.9854C61.35 94.4321 61.6544 93.6712 61.6544 92.7212C61.6544 92.2601 61.5806 91.8405 61.433 91.4623C61.4146 91.4162 61.4377 91.3609 61.4792 91.3424C61.5253 91.3194 61.5806 91.3378 61.6037 91.3793C61.6406 91.4439 61.6728 91.5177 61.7051 91.6145L62.964 95.6495H65.2421L65.4634 94.9762C65.4772 94.9301 65.5234 94.9024 65.5695 94.9117C65.6156 94.9209 65.6525 94.9578 65.6525 95.0085V95.6495H77.2271V92.7674H75.7145L75.6961 93.1178C75.6777 93.4729 75.6362 93.6758 75.6085 93.7819C75.5762 93.9018 75.5301 93.994 75.4701 94.0585C75.4379 94.0954 75.3825 94.1139 75.3456 94.1231C75.2995 94.1369 75.1796 94.1554 74.8983 94.16C74.8707 94.1554 74.8476 94.1508 74.8292 94.1323C74.8107 94.1139 74.8015 94.0908 74.8015 94.0632V91.3424C74.8015 91.2871 74.843 91.2456 74.8983 91.2456H75.4978V89.7792H71.6934V91.2456H72.2698C72.3252 91.2456 72.3667 91.2871 72.3667 91.3424V94.077C72.3667 94.1323 72.3252 94.1738 72.2698 94.1738L71.6473 94.1692C71.6104 94.1692 71.5735 94.1462 71.5597 94.1093C71.5412 94.0632 71.5136 93.994 71.4813 93.8925L70.2085 89.7746H67.8291L67.5754 90.5124C67.5616 90.5585 67.5155 90.5862 67.4694 90.5769C67.4232 90.5677 67.391 90.5308 67.391 90.4801V89.7699H60.8243V90.3003C60.8243 90.3372 60.8013 90.374 60.769 90.3879C60.7367 90.4017 60.6952 90.3971 60.6676 90.374C60.0773 89.8714 59.298 89.6178 58.348 89.6178C57.3335 89.6178 56.5173 89.8945 55.927 90.4386C55.8025 90.5539 55.6872 90.6876 55.5673 90.8536C55.5443 90.8859 55.4982 90.9044 55.4613 90.8905C55.4198 90.8767 55.3967 90.8398 55.3967 90.7983V89.7699H51.8091L51.2603 91.5638C51.2465 91.6053 51.2096 91.633 51.1681 91.633C51.1266 91.633 51.0897 91.6053 51.0758 91.5638L50.5686 89.7746H41.1613V90.8951C41.1613 90.9412 41.1244 90.9828 41.0783 90.992C41.0322 90.9966 40.9861 90.9689 40.9723 90.9228C40.8524 90.5216 40.608 90.2864 40.4281 90.1573C40.0546 89.8991 39.5335 89.7746 38.8326 89.7746H34.959V91.241H35.5354C35.5908 91.241 35.6323 91.2825 35.6323 91.3378V94.0724C35.6323 94.1277 35.5908 94.1692 35.5354 94.1692H34.9544V95.6403H38.7588V95.465C38.7588 95.4281 38.7819 95.3912 38.8141 95.3774C38.8464 95.3636 38.8879 95.3682 38.9156 95.3912C39.1969 95.6403 39.6027 95.7648 40.1561 95.7648C40.4835 95.7648 40.774 95.7002 41.0184 95.5803C41.0461 95.5665 41.0829 95.5665 41.1106 95.5849C41.1337 95.5988 41.1475 95.6172 41.1521 95.6449H55.3875V94.6211C55.3875 94.5796 55.4152 94.5427 55.4521 94.5289C55.4659 94.5289 55.4751 94.5289 55.4843 94.5289ZM58.3388 94.2753C58.1405 94.2753 58.0206 94.2015 57.9284 94.0217C57.8039 93.7726 57.7347 93.3207 57.7347 92.7028C57.7347 91.9419 57.8408 91.5776 57.9284 91.407C58.0206 91.2272 58.1451 91.1534 58.348 91.1534C58.5463 91.1534 58.6662 91.2271 58.7584 91.4116C58.846 91.5868 58.9521 91.9558 58.9521 92.7305C58.9521 93.3346 58.8876 93.7865 58.7584 94.0309C58.6662 94.2015 58.5417 94.2753 58.3388 94.2753ZM58.3434 91.3424C58.2143 91.3424 58.1543 91.3793 58.0944 91.4946C58.0298 91.6191 57.9238 91.9419 57.9238 92.7028C57.9238 93.4821 58.0298 93.8095 58.0944 93.934C58.1543 94.0539 58.2051 94.0862 58.3342 94.0862C58.4679 94.0862 58.5233 94.0539 58.5832 93.9387C58.6616 93.7865 58.7538 93.4545 58.7538 92.7259C58.7538 91.9926 58.6616 91.6514 58.5832 91.4946C58.5233 91.3747 58.4725 91.3424 58.3434 91.3424ZM66.2151 94.1784H65.86C65.8277 94.1784 65.8 94.1646 65.7816 94.1369C65.7631 94.1139 65.7585 94.0816 65.7678 94.0493L66.6116 91.4808C66.6347 91.4162 66.6531 91.3655 66.6624 91.3378C66.667 91.2963 66.7039 91.2594 66.7454 91.2502C66.7592 91.2456 66.7915 91.241 66.8376 91.241H67.1973C67.2296 91.241 67.2572 91.2548 67.2757 91.2825C67.2941 91.3055 67.2987 91.3424 67.2895 91.3701L66.418 93.8971C66.3211 94.1784 66.2473 94.1784 66.2151 94.1784ZM65.9937 93.9848H66.169C66.1828 93.9617 66.2058 93.9156 66.2289 93.8418L67.0589 91.4393H66.8376H66.833C66.8238 91.4623 66.8099 91.4992 66.7961 91.5407L65.9937 93.9848ZM55.18 94.1784H54.8203C54.765 94.1784 54.7235 94.1369 54.7235 94.0816V91.347C54.7235 91.2917 54.765 91.2502 54.8203 91.2502H55.1846C55.2169 91.2502 55.2492 91.2687 55.263 91.2917C55.2814 91.3194 55.2861 91.3517 55.2722 91.3839C55.1016 91.7851 55.0186 92.2324 55.0186 92.7212C55.0186 93.2054 55.1016 93.6527 55.2722 94.0447C55.2861 94.0724 55.2814 94.1093 55.263 94.1369C55.2445 94.16 55.2123 94.1784 55.18 94.1784ZM54.9171 93.9848H55.0416C54.9909 93.851 54.9494 93.7081 54.9171 93.5651V93.9848ZM54.9171 91.4393V91.8727C54.9494 91.7252 54.9909 91.5822 55.0463 91.4393H54.9171ZM47.6173 94.1784H47.3683C47.3129 94.1784 47.2714 94.1369 47.2714 94.0816V92.7904H45.7866C45.7312 92.7904 45.6897 92.7489 45.6897 92.6936V92.5322C45.6897 92.4768 45.7312 92.4353 45.7866 92.4353H47.2438V91.347C47.2438 91.2917 47.2853 91.2502 47.3406 91.2502H47.6219C47.6772 91.2502 47.7187 91.2917 47.7187 91.347V94.0816C47.7141 94.1323 47.668 94.1784 47.6173 94.1784ZM47.4605 93.9848H47.5205V91.4393H47.4328V92.5276C47.4328 92.5552 47.419 92.5829 47.4006 92.6013C47.4375 92.6152 47.4651 92.6521 47.4651 92.6936V93.9848H47.4605ZM38.3668 94.1784H38.1547C38.0994 94.1784 38.0579 94.1369 38.0579 94.0816V93.4314C38.0579 93.4037 38.0671 93.3807 38.0855 93.3622C38.104 93.3438 38.127 93.3346 38.1547 93.3346C38.2377 93.3346 38.3115 93.3392 38.3622 93.3484C38.4037 93.3576 38.4314 93.3853 38.4406 93.4268C38.4498 93.4821 38.4637 93.5836 38.4637 93.7588V94.0862C38.4637 94.1323 38.4176 94.1784 38.3668 94.1784ZM38.2515 93.9848H38.27V93.7542C38.27 93.6527 38.2654 93.579 38.2608 93.5282C38.2562 93.5282 38.2515 93.5282 38.2515 93.5282V93.9848ZM41.7285 93.4591H40.9123C40.8616 93.4591 40.8201 93.4222 40.8155 93.3761C40.7786 93.0487 40.7048 92.8135 40.5941 92.6613L40.5895 92.6567C40.5803 92.6428 40.5711 92.6336 40.5619 92.6244C40.5296 92.5829 40.5342 92.5276 40.5711 92.4907C40.5987 92.463 40.6264 92.4399 40.6495 92.4123C40.9031 92.1448 41.0322 91.8128 41.0322 91.4301C41.0322 91.4208 41.0322 91.4116 41.0276 91.4024C41.023 91.3839 41.023 91.3701 41.023 91.3517C41.023 91.324 41.0322 91.3009 41.0507 91.2825C41.0691 91.264 41.0922 91.2548 41.1198 91.2548H41.7193C41.7747 91.2548 41.8162 91.2963 41.8162 91.3517V93.3714C41.8254 93.4176 41.7839 93.4591 41.7285 93.4591ZM40.9999 93.27H41.6363V91.4439H41.2397C41.2351 91.8727 41.0876 92.2463 40.8017 92.546C40.7924 92.5552 40.7832 92.5645 40.774 92.5737C40.88 92.7397 40.9538 92.961 40.9999 93.27ZM64.4258 92.4169C64.3843 92.4169 64.3474 92.3892 64.3336 92.3477L64.0339 91.3701C64.0247 91.3424 64.0293 91.3102 64.0477 91.2871C64.0662 91.264 64.0938 91.2502 64.1261 91.2502H64.7394C64.7717 91.2502 64.7994 91.264 64.8178 91.2917C64.8363 91.3148 64.8409 91.347 64.8316 91.3793L64.5181 92.3569C64.5042 92.3892 64.4673 92.4169 64.4258 92.4169ZM64.2552 91.4393L64.4258 91.9973L64.6057 91.4393H64.2552ZM38.1409 91.8958C38.1178 91.8958 38.0901 91.8866 38.0717 91.8681C38.0533 91.8497 38.044 91.8266 38.044 91.799V91.3793C38.044 91.324 38.0855 91.2825 38.1409 91.2825H38.1732C38.3484 91.2825 38.4406 91.3055 38.4775 91.3102C38.4867 91.3102 38.4959 91.3102 38.5052 91.3148C38.5282 91.324 38.5513 91.3424 38.5605 91.3655C38.5743 91.3932 38.5974 91.4669 38.5974 91.6099C38.5974 91.6745 38.5928 91.716 38.5882 91.739C38.5882 91.7759 38.5743 91.8082 38.5421 91.8266C38.5052 91.8497 38.3991 91.8912 38.1409 91.8958ZM38.2331 91.4762V91.7021C38.3115 91.6975 38.3622 91.6883 38.3945 91.6791C38.3945 91.6606 38.3991 91.6376 38.3991 91.6145C38.3991 91.5592 38.3945 91.5223 38.3899 91.4946C38.3576 91.4854 38.3069 91.4762 38.2331 91.4762Z" fill="white"/>
<path d="M11.7452 91.3101C11.7452 91.1118 11.7222 90.9873 11.6714 90.9412C11.6207 90.8951 11.5054 90.872 11.3256 90.872H11.0397V90.148H14.0786V90.872H13.8434C13.6774 90.872 13.5667 90.8904 13.5114 90.9319C13.4607 90.9734 13.433 91.0841 13.433 91.2732V91.3101V93.5558C13.433 93.934 13.4007 94.2245 13.3316 94.4228C13.267 94.6257 13.1563 94.7963 12.9995 94.9393C12.8243 95.1053 12.5983 95.2252 12.3355 95.3082C12.068 95.3866 11.7591 95.4281 11.3994 95.4281C10.8368 95.4281 10.3803 95.2943 10.0298 95.0223C9.67933 94.7502 9.50409 94.4043 9.50409 93.9801C9.50409 93.6573 9.59632 93.3944 9.78539 93.1961C9.97446 92.9979 10.2189 92.8964 10.5186 92.8964C10.7446 92.8964 10.9198 92.961 11.0535 93.0901C11.1826 93.2192 11.2518 93.3898 11.2518 93.6066C11.2518 93.8095 11.1919 93.9755 11.0766 94.1C10.9567 94.2245 10.8045 94.289 10.6108 94.289C10.5785 94.289 10.5463 94.289 10.5094 94.2844C10.4725 94.2798 10.4356 94.2752 10.3987 94.266C10.4587 94.3905 10.5417 94.4827 10.6431 94.5473C10.7446 94.6118 10.8645 94.6395 11.0028 94.6395C11.2795 94.6395 11.4732 94.5611 11.5838 94.4089C11.6899 94.2568 11.7452 93.9478 11.7452 93.4867V91.3101Z" fill="white"/>
<path d="M16.601 93.5697C16.601 93.9662 16.661 94.2429 16.7855 94.3997C16.9054 94.5565 17.1129 94.6395 17.4034 94.6395C17.7493 94.6395 17.9983 94.5611 18.1459 94.4043C18.298 94.2475 18.3718 93.9893 18.3718 93.6342V91.3101C18.3718 91.1072 18.3488 90.9873 18.298 90.9412C18.2473 90.8951 18.1366 90.872 17.9568 90.872H17.6986V90.148H20.055V90.872H19.8198C19.6446 90.872 19.5293 90.8951 19.4786 90.9412C19.4278 90.9873 19.4048 91.1026 19.4048 91.287V93.7587C19.4048 94.3075 19.2065 94.7225 18.8145 95.0038C18.4225 95.2897 17.8461 95.4327 17.0898 95.4327C16.4027 95.4327 15.8678 95.2897 15.4897 95.013C15.1116 94.7363 14.9225 94.3352 14.9225 93.8233V91.3101C14.9225 91.1164 14.8948 90.9965 14.8441 90.9458C14.7934 90.8951 14.6781 90.872 14.4982 90.872H14.24V90.148H17.302V90.872H17.0207C16.8362 90.872 16.7209 90.8951 16.6702 90.9458C16.6195 90.9919 16.5964 91.1164 16.5964 91.3101V93.5697H16.601Z" fill="white"/>
<path d="M22.7619 90.1526L24.6341 93.6019V91.31C24.6341 91.1025 24.6064 90.978 24.5557 90.9365C24.5004 90.895 24.3897 90.8719 24.2191 90.8719H23.9332V90.148H26.1651V90.8719H25.9852C25.81 90.8719 25.6947 90.895 25.644 90.9411C25.5933 90.9872 25.5702 91.1117 25.5702 91.31V95.2758H23.8271L21.8534 91.6005V94.1045C21.8534 94.3028 21.8811 94.4273 21.9272 94.4734C21.9779 94.5196 22.0932 94.5426 22.2684 94.5426H22.4944V95.2712H20.2533V94.5426H20.5023C20.6821 94.5426 20.7974 94.5196 20.8481 94.4688C20.8989 94.4227 20.9265 94.2982 20.9265 94.0999V91.3008C20.9265 91.1071 20.8989 90.9872 20.8527 90.9365C20.802 90.8858 20.6867 90.8627 20.5023 90.8627H20.2533V90.1387H22.7619V90.1526Z" fill="white"/>
<path d="M29.1948 90.1527V90.8767H29.1487C28.9873 90.8767 28.8766 90.8998 28.8259 90.9413C28.7751 90.9828 28.7475 91.1073 28.7475 91.3148V92.5829L30.3845 91.2179C30.426 91.1811 30.4583 91.1488 30.4767 91.1119C30.4998 91.075 30.509 91.0427 30.509 91.0058C30.509 90.9597 30.486 90.9274 30.4352 90.909C30.3891 90.8859 30.3107 90.8767 30.2093 90.8767H29.785V90.1527H32.6164V90.8767H32.3582C32.2706 90.8767 32.1645 90.909 32.04 90.9735C31.9155 91.0381 31.7818 91.1303 31.6388 91.2548L30.6151 92.1402L31.9893 94.2107C32.0723 94.3352 32.1553 94.4229 32.2383 94.4736C32.3213 94.5243 32.4227 94.552 32.538 94.552H32.8516V95.2806H29.7066V94.552H29.9464C30.0755 94.552 30.1678 94.5428 30.2185 94.5197C30.2738 94.4966 30.3015 94.4598 30.3015 94.4136C30.3015 94.3768 30.2969 94.3445 30.2877 94.3168C30.2784 94.2845 30.2646 94.2569 30.2416 94.2292L29.4991 93.0902L28.7382 93.685V94.1139C28.7382 94.3122 28.7613 94.4321 28.812 94.4828C28.8627 94.5289 28.9734 94.5566 29.144 94.5566H29.3101V95.2852H26.4095V94.5566H26.6631C26.8383 94.5566 26.9536 94.5335 27.0044 94.4874C27.0551 94.4413 27.0781 94.3168 27.0781 94.1185V91.3194C27.0781 91.1211 27.0551 90.9966 27.0044 90.9505C26.9536 90.9044 26.8383 90.8813 26.6585 90.8813H26.4049V90.1573H29.1948V90.1527Z" fill="white"/>
<path d="M36.0012 94.1092V91.3101C36.0012 91.1118 35.9781 90.9873 35.9274 90.9412C35.8767 90.8951 35.7614 90.872 35.5816 90.872H35.3279V90.148H38.828C39.4459 90.148 39.907 90.2541 40.2114 90.4662C40.5157 90.6783 40.6679 90.9965 40.6679 91.4254C40.6679 91.7159 40.5757 91.9557 40.3866 92.154C40.1976 92.3523 39.9347 92.486 39.5889 92.5552C39.9347 92.5967 40.1699 92.7027 40.2898 92.8733C40.4143 93.044 40.4742 93.4313 40.4742 94.0446C40.4742 94.2291 40.4881 94.3582 40.5204 94.4274C40.5526 94.4966 40.6034 94.5334 40.6725 94.5334C40.7417 94.5334 40.7924 94.4919 40.8247 94.4043C40.857 94.3167 40.8754 94.1876 40.8754 94.0077C40.8754 93.9893 40.8754 93.9616 40.8708 93.9201C40.8662 93.8786 40.8662 93.851 40.8662 93.8325H41.3781C41.3781 93.8556 41.3781 93.8879 41.3827 93.934C41.3873 93.9801 41.3873 94.0124 41.3873 94.0354C41.3873 94.5104 41.2905 94.8609 41.0968 95.073C40.9031 95.2897 40.5895 95.3958 40.1514 95.3958C39.6903 95.3958 39.3537 95.2989 39.1415 95.1053C38.9294 94.9116 38.8234 94.6026 38.8234 94.1784V93.7495C38.8234 93.4083 38.7773 93.1869 38.6896 93.0947C38.5974 93.0025 38.4129 92.9563 38.127 92.9563H37.6705V94.1046C37.6705 94.3029 37.6982 94.4274 37.7443 94.4735C37.795 94.5196 37.9103 94.5427 38.0809 94.5427H38.3668V95.2713H35.3095V94.5427H35.5631C35.7383 94.5427 35.8536 94.5196 35.9043 94.4735C35.9735 94.432 36.0012 94.3075 36.0012 94.1092ZM37.6705 92.2646H38.1132C38.4268 92.2646 38.6481 92.2139 38.7726 92.1125C38.8971 92.011 38.9617 91.845 38.9617 91.6052C38.9617 91.347 38.9018 91.1671 38.7865 91.0611C38.6712 90.955 38.4637 90.9043 38.1685 90.9043H37.6705V92.2646Z" fill="white"/>
<path d="M46.8656 90.1526V92.0617H46.0586C46.0079 91.8127 45.9526 91.619 45.8926 91.4807C45.8327 91.3424 45.7635 91.2317 45.6805 91.1441C45.5837 91.0472 45.4684 90.9781 45.33 90.9366C45.1917 90.8951 44.9704 90.8766 44.6614 90.8766H44.5092H43.859V92.2831H44.0573C44.2879 92.2831 44.4493 92.2277 44.5415 92.1171C44.6337 92.0064 44.6798 91.8081 44.6798 91.5222V91.4761H45.3162V93.8141H44.6798C44.6706 93.4544 44.6245 93.2238 44.5415 93.1177C44.4585 93.0117 44.3017 92.9563 44.0665 92.9563H43.8636V94.5519H44.7628C45.1087 94.5519 45.3485 94.5288 45.4822 94.4873C45.6159 94.4458 45.7174 94.372 45.7866 94.2706C45.865 94.1507 45.9295 93.9985 45.9756 93.8233C46.0218 93.6481 46.0494 93.4267 46.0679 93.1593H46.9025V95.2759H41.5303V94.5473H41.7839C41.9499 94.5473 42.0606 94.5288 42.1159 94.4873C42.1712 94.4458 42.1943 94.3352 42.1943 94.1461V94.1092V91.3101C42.1943 91.1118 42.1712 90.9873 42.1205 90.9412C42.0698 90.8951 41.9545 90.872 41.7747 90.872H41.5256V90.148H46.8656V90.1526Z" fill="white"/>
<path d="M55.0186 90.1526V90.8766H54.7696C54.5943 90.8766 54.4837 90.8996 54.4329 90.9411C54.3822 90.9827 54.3592 91.1072 54.3592 91.3101V94.1092C54.3592 94.3167 54.3868 94.4412 54.4376 94.4827C54.4883 94.5242 54.6036 94.5473 54.7742 94.5473H55.0232V95.2759H52.2333V94.5473H52.4224C52.593 94.5473 52.7037 94.5288 52.759 94.4873C52.8143 94.4458 52.842 94.3213 52.842 94.1092V90.9919L51.5416 95.2759H50.3519L49.116 90.9965V94.1046C49.116 94.3029 49.1391 94.4274 49.1898 94.4735C49.2405 94.5196 49.3558 94.5426 49.531 94.5426H49.7201V95.2713H47.4421V94.5426H47.6772C47.8525 94.5426 47.9678 94.5196 48.0185 94.4735C48.0692 94.4274 48.0923 94.3029 48.0923 94.1046V91.3054C48.0923 91.1072 48.0692 90.9826 48.0185 90.9365C47.9678 90.8904 47.8525 90.8674 47.6726 90.8674H47.4375V90.1434H50.2873L51.1496 93.1961L52.0811 90.1434H55.0186V90.1526Z" fill="white"/>
<path d="M55.3921 92.7167C55.3921 91.8682 55.655 91.2042 56.1761 90.72C56.6971 90.2358 57.4211 89.996 58.3434 89.996C59.2611 89.996 59.9805 90.2358 60.5015 90.72C61.0226 91.2042 61.2855 91.8682 61.2855 92.7167C61.2855 93.5652 61.0226 94.2292 60.5015 94.7088C59.9805 95.1884 59.2565 95.4282 58.3296 95.4282C57.4165 95.4282 56.6971 95.1884 56.1761 94.7042C55.655 94.2246 55.3921 93.5606 55.3921 92.7167ZM58.3434 90.7799C58.0022 90.7799 57.7485 90.9321 57.5918 91.2364C57.435 91.5408 57.3566 92.0296 57.3566 92.7029C57.3566 93.39 57.435 93.8834 57.5918 94.1923C57.7485 94.4967 57.9929 94.6489 58.3342 94.6489C58.68 94.6489 58.9291 94.4967 59.0859 94.1923C59.2426 93.888 59.321 93.3992 59.321 92.7213C59.321 92.0388 59.2426 91.5454 59.0859 91.2364C58.9337 90.9321 58.6847 90.7799 58.3434 90.7799Z" fill="white"/>
<path d="M62.0648 91.5038C61.9956 91.2871 61.9126 91.1303 61.8112 91.0289C61.7097 90.9274 61.5852 90.8767 61.4377 90.8767H61.1979V90.1527H64.2414V90.8767H63.9601C63.8171 90.8767 63.7157 90.8905 63.665 90.9182C63.6142 90.9459 63.5912 90.9966 63.5912 91.0704C63.5912 91.1257 63.6004 91.1903 63.6142 91.2594C63.6142 91.2641 63.6142 91.2641 63.6142 91.2687L64.4166 93.8879L65.2605 91.2594C65.2743 91.2179 65.2836 91.1811 65.2882 91.1488C65.2928 91.1165 65.2974 91.0934 65.2974 91.0704C65.2974 90.9966 65.2743 90.9459 65.2236 90.9182C65.1729 90.8905 65.0714 90.8767 64.9193 90.8767H64.6656V90.1527H67.0313V90.8767H66.8468C66.69 90.8767 66.5655 90.909 66.4825 90.9781C66.3995 91.0473 66.3257 91.1764 66.2658 91.3701L64.9838 95.276H63.2499L62.0648 91.5038Z" fill="white"/>
<path d="M68.8574 95.276V94.5474H69.088C69.2816 94.5474 69.3969 94.5382 69.443 94.5151C69.4845 94.492 69.5076 94.4551 69.5076 94.3952C69.5076 94.3537 69.503 94.3168 69.4984 94.2799C69.4938 94.243 69.4845 94.2107 69.4753 94.1738L69.2955 93.6251H67.9259L67.7691 94.1139C67.7414 94.1877 67.723 94.2476 67.7138 94.2891C67.7045 94.3306 67.6999 94.3721 67.6999 94.4044C67.6999 94.4505 67.7322 94.4828 67.7922 94.5105C67.8521 94.5335 67.9397 94.5474 68.055 94.5474H68.3086V95.276H66.0352V94.5474H66.2243C66.3534 94.5474 66.4595 94.5059 66.5471 94.4229C66.6347 94.3399 66.7131 94.2061 66.773 94.0217L68.1103 90.1527H69.9503L71.14 94.0078C71.223 94.2615 71.2968 94.4136 71.3614 94.469C71.4306 94.5243 71.5366 94.5474 71.6842 94.5474H71.9516V95.276H68.8574ZM69.0511 92.8919L68.5899 91.3425L68.1565 92.8919H69.0511Z" fill="white"/>
<path d="M75.1289 90.1526V90.8766H74.843C74.677 90.8766 74.5663 90.8951 74.5156 90.9366C74.4649 90.9781 74.4372 91.0887 74.4372 91.2778V91.3147V94.5334H74.7784C75.0966 94.5334 75.318 94.515 75.4471 94.4827C75.5762 94.4504 75.6777 94.3905 75.7561 94.3075C75.8529 94.2014 75.9267 94.0631 75.9728 93.8832C76.0235 93.7034 76.0558 93.459 76.0742 93.1408H76.8628V95.2759H72.0762V94.5473H72.3298C72.505 94.5473 72.6203 94.5242 72.671 94.4781C72.7218 94.432 72.7448 94.3075 72.7448 94.1092V91.3101C72.7448 91.1118 72.7218 90.9873 72.671 90.9412C72.6203 90.8951 72.505 90.872 72.3252 90.872H72.0715V90.148H75.1289V90.1526Z" fill="white"/>
<path d="M7.39207 91.6148H0.295128L0.46575 91.269H7.39207V91.6148Z" fill="white"/>
<path d="M7.39207 92.4677H1.15746L1.3327 92.1172H7.39207V92.4677Z" fill="white"/>
<path d="M7.39207 93.3164H2.02441L2.19964 92.9705H7.39207V93.3164Z" fill="white"/>
<path d="M7.39207 94.1649H2.89134L3.06196 93.819H7.39207V94.1649Z" fill="white"/>
<path d="M78.9794 91.6148H86.0763L85.9011 91.269H78.9794V91.6148Z" fill="white"/>
<path d="M78.9794 92.4677H85.2094L85.0342 92.1172H78.9794V92.4677Z" fill="white"/>
<path d="M78.9794 93.3164H84.3425L84.1718 92.9705H78.9794V93.3164Z" fill="white"/>
<path d="M78.9794 94.1649H83.4801L83.3049 93.819H78.9794V94.1649Z" fill="white"/>
<path d="M86.2746 87.5934H0.0922241V87.9577H86.2746V87.5934Z" fill="white"/>
<path d="M2.83601 81.9953L2.88673 81.8016L3.16342 81.7647C3.43549 81.7324 3.70295 81.7002 3.97502 81.6633C4.93881 81.3912 5.92565 81.1237 6.94015 80.8701C6.50668 79.1916 6.07782 77.5822 5.65818 76.0604C5.02181 76.291 4.38544 76.5262 3.74907 76.766C3.26026 78.7028 2.76684 80.5012 2.27803 82.1567C2.46249 82.1014 2.65155 82.0506 2.83601 81.9953ZM3.12653 80.8424C3.31559 79.9617 3.50466 79.0532 3.69373 78.1263L4.50072 78.0987C4.72668 78.9103 4.95725 79.7449 5.18782 80.6026L5.30772 81.0407L2.99741 81.4512L3.12653 80.8424Z" fill="white"/>
<path d="M9.12134 75.5396C9.37036 75.5396 9.51792 75.6411 9.60554 75.7287C9.76232 75.8947 9.82688 76.1714 9.84072 76.7201L9.92372 80.1879C10.4402 80.0772 10.9567 79.962 11.4824 79.8559L11.3855 76.0976C11.3717 75.5719 11.4178 75.2814 11.5469 75.0923C11.6761 74.894 11.9112 74.7603 12.2525 74.6727L12.3355 74.6542L12.317 73.9118C11.155 74.2484 9.99751 74.6035 8.85849 74.977L8.87232 75.5719C8.95994 75.5489 9.04295 75.5396 9.12134 75.5396Z" fill="white"/>
<path d="M16.412 73.7407C16.7301 73.7407 16.9054 73.879 16.993 73.9989C17.1083 74.1511 17.1867 74.3955 17.2051 75.1102L17.2974 78.8132C17.8184 78.7302 18.3441 78.6518 18.8698 78.578L18.773 74.603C18.7546 73.8698 18.8329 73.6392 18.9252 73.4963C19.0589 73.2795 19.3079 73.132 19.6676 73.0674L19.7322 73.0582L19.7091 72.0483C18.5286 72.3065 17.3481 72.5786 16.1906 72.8691L16.2137 73.7637C16.2875 73.7453 16.352 73.7407 16.412 73.7407Z" fill="white"/>
<path d="M27.2718 71.8916C27.6776 71.8916 27.8759 72.0806 27.9727 72.2328C28.0604 72.3758 28.1434 72.6294 28.1572 73.4687L28.231 77.5129C29.6467 77.393 31.09 77.2961 32.5426 77.2131C32.4735 77.1762 32.4043 77.1347 32.3305 77.1071L31.625 76.8258L32.2429 76.3831C32.6671 76.0787 32.9807 75.6637 33.2021 75.1103C33.4326 74.5339 33.5433 73.8514 33.5341 73.0721C33.5249 71.9423 33.322 71.1399 32.9346 70.6834C32.6349 70.3283 32.1876 70.1531 31.5789 70.1531C31.4497 70.1531 31.316 70.1623 31.1777 70.1761C29.8404 70.3237 28.4892 70.4943 27.1519 70.688L27.175 71.8916C27.2026 71.8962 27.2395 71.8916 27.2718 71.8916ZM30.5228 71.5595C30.5828 71.5549 30.6427 71.5503 30.6981 71.5503C31.1638 71.5503 31.5281 71.7532 31.7541 72.1314C31.9616 72.4818 32.0677 73.0306 32.0815 73.8145C32.0907 74.5939 31.9985 75.1703 31.791 75.5761C31.5512 76.0464 31.1454 76.3185 30.6105 76.3554L29.7758 76.4154L29.702 71.6426L30.5228 71.5595Z" fill="white"/>
<path d="M37.1586 77.0057L37.6936 72.7632L38.5144 72.754C38.6712 73.8054 38.9663 75.7883 39.1415 76.9596C39.6903 76.9503 40.2391 76.9411 40.7878 76.9365C40.4235 74.4832 40.0592 72.03 39.6903 69.5859C39.0401 69.6044 38.3899 69.6321 37.7397 69.6643C37.3523 72.1268 36.9696 74.5801 36.5868 77.0241C36.7759 77.0149 36.9696 77.0149 37.1586 77.0057Z" fill="white"/>
<path d="M47.5205 72.6341C47.2253 73.6302 46.9348 74.6263 46.6443 75.6269L46.2615 76.9504C46.5059 76.955 46.7457 76.9642 46.9901 76.9688C47.4052 75.59 47.8202 74.2158 48.2398 72.8509C48.4427 72.1914 48.6134 71.7718 48.7748 71.532C48.9684 71.2369 49.1898 71.117 49.3927 71.0755L49.4019 69.7059C48.5811 69.6598 47.7556 69.6229 46.9348 69.5952L46.9302 70.9602C47.11 70.9879 47.2668 71.057 47.3959 71.1769C47.562 71.3337 47.6496 71.5412 47.6496 71.7718C47.6496 71.9101 47.6357 72.0577 47.6127 72.2191C47.5896 72.3805 47.5573 72.5188 47.5205 72.6341Z" fill="white"/>
<path d="M42.8491 71.4305C43.0428 71.7072 43.2088 72.1084 43.3656 72.6526C43.7714 74.0775 44.1726 75.5024 44.5692 76.9273C45.1225 76.9319 45.6759 76.9366 46.2247 76.9458L44.9934 72.6203C44.9473 72.4497 44.9104 72.3113 44.8966 72.2191C44.8781 72.1038 44.8689 71.9977 44.8643 71.8871C44.8643 71.5873 44.9427 71.3521 45.0902 71.1861C45.1825 71.0847 45.3393 70.9648 45.6159 70.9279L45.6206 69.5491C44.809 69.5307 43.9973 69.5214 43.1811 69.5214C42.8399 69.5214 42.4986 69.5214 42.162 69.526L42.1666 70.9141C42.4249 70.9786 42.6554 71.1492 42.8491 71.4305Z" fill="white"/>
<path d="M55.3921 77.361C55.5996 75.9914 55.8117 74.631 56.0239 73.2753L56.8447 73.2845L57.3981 77.5131C57.9514 77.5593 58.4956 77.61 59.0397 77.6607C58.7169 75.3043 58.3941 72.934 58.0667 70.5269C57.4211 70.4393 56.7709 70.3563 56.1253 70.2825C55.6872 72.5974 55.2492 74.9538 54.8157 77.3149C55.0094 77.3287 55.1984 77.3471 55.3921 77.361Z" fill="white"/>
<path d="M62.1939 72.6714C62.2677 72.8236 62.3369 73.0772 62.323 73.8842L62.24 77.993C62.7657 78.0529 63.2914 78.1129 63.8079 78.1774V78.1313L64.9008 78.2328C65.1545 78.2558 65.3389 78.3204 65.4957 78.3988C66.1505 78.4864 66.7961 78.5832 67.4417 78.6801C67.308 78.4679 67.1051 78.3112 66.8238 78.2143L65.5049 77.767L66.8561 77.4212C67.2434 77.3197 67.5385 77.0984 67.7599 76.7387C67.9997 76.3513 68.1242 75.8348 68.1426 75.2031C68.1657 74.2439 67.9905 73.483 67.6262 72.9343C67.2619 72.3947 66.6947 72.0443 65.9338 71.8829C64.4351 71.5693 62.9179 71.2834 61.4192 71.0344L61.4008 72.1872C61.7881 72.2425 62.0556 72.4086 62.1939 72.6714ZM63.9094 72.6622L65.0945 72.8605C65.7816 72.9804 66.109 73.3447 66.2658 73.6352C66.4595 74.0041 66.5471 74.5436 66.5286 75.2861C66.5102 75.9916 66.3857 76.4896 66.1367 76.7986C65.9753 77.0015 65.6617 77.2505 65.0899 77.2505C65.0023 77.2505 64.91 77.2459 64.8086 77.2321L63.8033 77.1122L63.9094 72.6622Z" fill="white"/>
<path d="M71.0063 74.2527C71.0801 74.3865 71.1585 74.6355 71.1354 75.3549L71.034 79.2653C71.5458 79.3576 72.0531 79.4544 72.5557 79.5466L72.5696 79.0532L73.3166 79.15C73.9161 79.2284 74.1836 79.5651 74.3035 79.8371C74.3127 79.8556 74.3173 79.874 74.3265 79.8925C74.4233 79.9109 74.5156 79.934 74.6078 79.9524L74.6816 76.9596C74.6539 76.955 74.6263 76.9458 74.6032 76.9412C74.5663 77.4346 74.4787 77.7805 74.3311 78.0156C74.1467 78.32 73.8377 78.486 73.4642 78.486C73.3858 78.486 73.3074 78.4814 73.2152 78.4629L72.5834 78.3569L72.6849 74.3173L74.3173 74.7139C74.8061 74.8384 75.1612 74.9813 75.3964 75.1474C75.6361 75.318 75.839 75.5532 76.0004 75.8483C76.1296 76.0881 76.2402 76.3832 76.3232 76.7291C76.3878 76.9873 76.4431 77.3239 76.4985 77.7436L76.8536 77.8127L76.9227 74.7738C74.7185 74.0729 72.4773 73.4319 70.2454 72.8693L70.2224 73.7593L70.2362 73.7639C70.6282 73.8516 70.8726 74.0083 71.0063 74.2527Z" fill="white"/>
<path d="M81.0638 81.5019L82.4149 81.6633L82.4749 81.9077C83.0236 82.0691 83.5585 82.2352 84.0888 82.4012C83.6277 80.6811 83.162 78.8089 82.7054 76.8029C82.0691 76.5585 81.4327 76.3233 80.7917 76.0928C80.3075 77.6514 79.8187 79.3115 79.3207 81.0408C79.9109 81.1976 80.4966 81.3452 81.0638 81.5019ZM80.7594 77.7944L81.5664 77.8128C81.7647 78.7812 81.9676 79.7266 82.1659 80.6534L82.295 81.2575L79.9939 80.861L80.1 80.4275C80.3259 79.5283 80.5427 78.6521 80.7594 77.7944Z" fill="white"/>
<path d="M46.0725 48.4932L44.6476 48.6777V47.4972L46.0725 47.3081V48.4932Z" fill="white"/>
<path d="M64.2967 51.2696C64.6253 51.2696 64.8916 50.9496 64.8916 50.5549C64.8916 50.1601 64.6253 49.8401 64.2967 49.8401C63.9682 49.8401 63.7018 50.1601 63.7018 50.5549C63.7018 50.9496 63.9682 51.2696 64.2967 51.2696Z" fill="white"/>
<path d="M54.5067 53.9487L52.3163 54.1101C52.0442 54.1286 51.8275 53.9257 51.8275 53.6582V51.9796C51.8275 51.7076 52.0489 51.4724 52.3163 51.4539L54.5067 51.2925C54.7788 51.2741 54.9955 51.477 54.9955 51.7445V53.423C55.0001 53.6951 54.7788 53.9303 54.5067 53.9487Z" fill="white"/>
<path d="M54.5252 43.8589L51.56 44.486C51.3525 44.5322 51.1358 44.4353 51.0297 44.2509L50.8499 43.9465C50.7023 43.6929 50.4118 43.5545 50.1213 43.6007L44.8597 44.4538C44.5599 44.5045 44.2879 44.2693 44.2879 43.965V38.2238C44.2879 37.9978 44.44 37.7995 44.6614 37.7442L51.7537 35.9227C51.9981 35.8581 52.2564 35.9919 52.344 36.2316L54.8941 43.2041C54.9909 43.49 54.8203 43.7989 54.5252 43.8589Z" fill="white"/>
<path d="M53.5937 35.9644L56.7479 44.122C56.7894 44.2326 56.8862 44.311 57.0015 44.3341C57.0015 44.3341 61.6498 45.6345 63.2315 45.9112C64.4074 46.1187 68.1242 46.5107 68.1242 46.5107C68.2625 46.5383 68.3686 46.3908 68.2994 46.2709C68.2994 46.2709 66.7454 43.0198 66.192 42.0192C65.7124 41.1522 64.0754 38.6621 64.0754 38.6621C64.0339 38.5837 63.9601 38.5237 63.8725 38.4961C63.8725 38.4961 59.9574 37.0804 58.5878 36.693C57.4534 36.3748 53.898 35.6278 53.898 35.6278C53.6997 35.5724 53.5199 35.7707 53.5937 35.9644Z" fill="white"/>
<path d="M56.7525 17.0161V26.4418V35.1343C57.5918 35.3233 58.4218 35.517 58.883 35.6461C59.8421 35.9182 61.9541 36.656 63.2223 37.108V26.8061V24.505V15.0931L56.7525 17.0161ZM59.63 33.6586L57.5503 34.1659V31.4452L59.63 30.9379V33.6586ZM59.63 27.401L57.5503 27.9082V25.1875L59.63 24.6802V27.401ZM59.63 21.3277L57.5503 21.835V19.1143L59.63 18.607V21.3277ZM62.4199 31.3253L60.3402 31.8325V29.1118L62.4199 28.6045V31.3253ZM62.4199 23.781L60.3402 24.2883V21.5675L62.4199 21.0603V23.781Z" fill="white"/>
<path d="M21.9549 30.3749L20.2855 30.0106L20.3224 29.8399C20.3409 29.7523 20.2855 29.6647 20.1979 29.6463L18.547 29.2866C18.4594 29.2681 18.3718 29.3235 18.3534 29.4111L18.3165 29.5817L16.6471 29.2174C16.5595 29.199 16.4719 29.2543 16.4535 29.3419L16.412 29.5402C16.3935 29.6278 16.4488 29.7154 16.5365 29.7339L21.8442 30.8867C21.9318 30.9052 22.0194 30.8498 22.0379 30.7622L22.0794 30.5639C22.0978 30.4809 22.0425 30.3933 21.9549 30.3749Z" fill="white"/>
<path d="M16.6287 32.9757L16.9054 32.9204L17.3896 35.3137L17.8553 35.1292L17.3804 32.8005C17.3527 32.6529 17.4449 32.5146 17.5925 32.4823C17.74 32.4546 17.8784 32.5469 17.9107 32.6944L18.3626 34.931L18.9067 34.7142L18.4733 32.5791C18.4456 32.4316 18.5378 32.2932 18.6854 32.261C18.8329 32.2333 18.9713 32.3255 19.0036 32.4731L19.4186 34.5159L19.9627 34.2992L19.5708 32.3578C19.5431 32.2102 19.6353 32.0719 19.7829 32.0396C19.9305 32.0119 20.0688 32.1042 20.1011 32.2517L20.4746 34.1009L21.0187 33.8842L20.6637 32.1364C20.636 31.9889 20.7282 31.8505 20.8758 31.8183C21.0234 31.7906 21.1617 31.8828 21.194 32.0304L21.5306 33.6859L21.9964 33.5014L21.6736 31.952L21.9502 31.8967C22.1993 31.8459 22.3607 31.6015 22.3099 31.3525L22.2408 31.0067L16.02 32.2702L16.0892 32.616C16.1353 32.8697 16.3797 33.0264 16.6287 32.9757Z" fill="white"/>
<path d="M24.3574 32.5605L24.5465 32.4867L22.1854 29.0097C22.0517 28.8068 22.1024 28.5255 22.3053 28.3872L26.3495 25.6296C26.451 25.5604 26.5709 25.5373 26.6862 25.5604C26.8061 25.5834 26.9075 25.6526 26.9721 25.7495L27.7975 26.9669L27.9589 26.8562L27.1335 25.6388C27.0366 25.4958 26.8891 25.399 26.7184 25.3667C26.5478 25.3344 26.3772 25.3713 26.2342 25.4682L22.19 28.2258C21.8995 28.4241 21.8211 28.8253 22.0148 29.1158L24.3574 32.5605Z" fill="white"/>
<path d="M27.8759 31.1681L25.9022 28.7471C25.9022 28.7471 23.5596 30.3426 23.4997 30.3657L25.0906 32.2702L27.8759 31.1681Z" fill="white"/>
<path d="M28.0327 29.3279C28.8489 29.102 29.1809 28.2811 28.5814 27.7923C27.982 27.3035 27.2856 27.9168 27.59 28.2719C27.8943 28.6316 28.2033 28.5348 28.1895 28.2442C28.1756 27.9537 27.8851 28.4149 27.8851 28.4149C27.8851 28.4149 27.4932 27.9906 27.9635 27.8431C28.4293 27.6955 28.9273 28.5624 28.3001 28.8391C27.673 29.1158 27.032 28.6316 27.0043 28.1151C26.9813 27.5987 27.7652 26.6533 28.812 27.4234C29.8588 28.1889 29.1901 29.3464 28.6229 29.5862C28.0557 29.826 27.5254 29.9551 26.7968 29.3879L28.3601 30.9788L31.9662 29.5539L28.9042 26.7455C28.9042 26.7455 27.7929 26.3859 26.8429 27.3174C25.893 28.2489 27.2165 29.5539 28.0327 29.3279Z" fill="white"/>
<path d="M36.264 27.8523C36.2225 27.594 36.3839 27.345 36.6422 27.2943C36.8451 27.2528 37.0387 27.3404 37.1494 27.5064L37.8457 27.2297L38.4129 23.121L34.6546 22.4293L33.654 28.8852L36.264 27.8523Z" fill="white"/>
<path d="M32.9346 29.1712L34.2027 21.673L43.1857 22.9181L42.4433 27.7186L42.6923 27.8016L43.4624 22.8305L43.4855 22.7014L33.986 21.3825L32.6533 29.2818L32.9346 29.1712Z" fill="white"/>
<path d="M39.1554 26.7091V27.0088C39.3352 26.9304 39.5335 26.8889 39.741 26.8889C39.907 26.8889 40.073 26.9166 40.2298 26.9673L41.8161 27.5022L42.4341 23.6102L38.8925 23.1537L38.3714 27.018L39.1554 26.7091Z" fill="white"/>
<path d="M52.367 31.0711L52.3163 29.8583L50.9836 27.3958L43.2641 27.7832L43.301 28.0091L52.367 31.0711Z" fill="white"/>
<path d="M47.3821 26.6627C47.3867 26.6627 47.3867 26.6627 47.3821 26.6627L52.4224 26.8933C52.7037 26.9071 52.9204 27.1377 52.9158 27.419L52.8651 31.2464L53.0956 31.3248L53.151 27.4236C53.1556 27.0178 52.842 26.6811 52.4362 26.6627L47.5758 26.4413L50.1904 21.4518C50.2181 21.3965 50.1997 21.3273 50.1397 21.295C50.0844 21.2674 50.0152 21.2904 49.9829 21.3457L47.3913 26.2846L45.0165 21.189C44.9888 21.129 44.9196 21.106 44.8643 21.1336C44.809 21.1613 44.7813 21.2305 44.8089 21.2858L47.2023 26.4229L42.8214 26.2246L42.8122 26.4552L47.3821 26.6627Z" fill="white"/>
<path d="M47.9816 12.7688V22.6741H48.0554L49.0146 20.8388C49.2451 20.4284 49.6509 20.1932 50.0844 20.1932C50.2781 20.1932 50.4671 20.2393 50.6378 20.3269C51.228 20.6405 51.4586 21.3691 51.1542 21.9501L50.7761 22.6695H50.9283V25.215L49.9507 25.4548L51.9658 25.547V23.8823L54.0456 23.375V26.0958L53.7597 26.1649C53.9119 26.331 54.0364 26.5246 54.1194 26.7368C54.1286 26.7552 54.1286 26.7783 54.1378 26.7967C54.1701 26.8843 54.1978 26.9765 54.2162 27.0688C54.2393 27.1841 54.2485 27.304 54.2485 27.4285L54.1978 30.9562L54.1885 31.6848C54.313 31.7309 54.4283 31.7955 54.5298 31.8692V22.6741V19.2801V10.8228L47.9816 12.7688ZM50.9698 18.3302L48.89 18.8374V16.1167L50.9698 15.6094V18.3302ZM51.3249 13.5435L53.4046 13.0363V15.757L51.3249 16.2643V13.5435ZM53.5476 20.9172L51.4678 21.4244V18.7037L53.5476 18.1964V20.9172Z" fill="white"/>
<path d="M71.2507 60.0773L70.8357 56.2591L70.5313 56.1392L70.0103 56.2591L67.7368 56.0562L69.752 56.0239L69.5214 52.8005L56.7018 51.0758L56.0423 51.4079L56.1023 55.0324L51.2234 55.0693C50.6147 52.3348 47.396 52.2656 47.396 52.2656L40.8616 52.9342L42.2773 51.8875C42.2773 51.8875 42.0606 38.3714 42.5494 37.5045L52.4454 34.6916C52.4454 34.6916 53.0818 34.8161 54.0686 35.0097V33.1191C54.0686 32.9346 53.9534 32.7732 53.7781 32.7133L39.884 28.005C39.6073 27.9128 39.3214 28.1157 39.3168 28.4062L39.1369 42.4064L38.1824 42.3603L38.0763 28.3094L16.3197 36.9096L15.8632 56.628C15.4067 58.1221 15.1162 61.8573 15.1162 61.8573L16.3474 61.7789C16.3705 62.0694 16.4258 62.3507 16.5134 62.6182C16.6933 63.4851 17.2005 63.9463 17.4864 64.1446C18.2104 64.8316 19.2157 65.2605 20.3317 65.2605C22.5359 65.2605 24.3251 63.5866 24.3251 61.5253C24.3251 61.4838 24.3251 61.4423 24.3205 61.4008L25.3304 61.4423C25.9114 62.9779 27.364 61.6913 27.364 61.6913L28.4016 61.7328C28.4016 63.0194 29.6467 64.3474 29.6467 64.3474L29.868 64.3521C30.4906 64.8778 31.2607 65.1913 32.0953 65.1913C34.1566 65.1913 35.8306 63.2868 35.8306 60.9396C35.8306 60.7874 35.8213 60.6353 35.8075 60.4877C35.826 60.2802 35.8306 60.1557 35.8306 60.1557C37.5322 60.5292 39.8563 59.7822 39.8563 59.7822L39.8978 61.4008L41.913 61.4423C42.4341 64.08 44.4815 66.0537 46.9302 66.0537C48.1845 66.0537 49.3327 65.5372 50.2273 64.6795C50.7807 64.5088 51.2142 63.6557 51.5047 62.8487C51.7214 62.3599 51.8875 61.8342 51.9797 61.2809H54.9909C55.3644 63.7526 57.2367 65.6294 59.4916 65.6294C60.7275 65.6294 61.8527 65.0622 62.6735 64.1399H62.7796C64.3982 62.9779 64.1492 59.9897 64.1492 59.9897L71.2507 60.0773ZM69.2125 56.6971L69.3647 58.5186H68.613L68.4516 56.5357L69.2125 56.6971ZM68.9681 54.0133C69.1617 54.0133 69.3232 54.3315 69.3232 54.7235C69.3232 55.1154 69.1664 55.4336 68.9681 55.4336C68.7744 55.4336 68.613 55.1154 68.613 54.7235C68.613 54.3269 68.7698 54.0133 68.9681 54.0133ZM67.9582 53.8565C67.972 53.8565 67.9812 53.8519 67.9951 53.8519C68.2349 53.8519 68.4331 54.2116 68.4331 54.6543C68.4331 55.097 68.2395 55.4567 67.9951 55.4567C67.9812 55.4567 67.972 55.4521 67.9582 55.4521V53.8565ZM18.5747 63.3329C17.7723 63.3329 17.1175 62.1847 17.1175 60.7644C17.1175 59.7591 17.4449 58.8876 17.9245 58.4679C17.8 58.8599 17.7216 59.321 17.7216 59.8191C17.7216 61.2394 18.3211 62.3876 19.0543 62.3876C19.3771 62.3876 19.6676 62.1709 19.8982 61.8066C19.6768 62.7012 19.1696 63.3329 18.5747 63.3329ZM31.173 43.8267C31.173 51.4263 21.6736 54.1055 21.6736 54.1055C21.277 53.9395 20.8574 53.8473 20.4193 53.8473C19.7875 53.8473 19.188 54.041 18.6485 54.3822L17.634 54.4744V37.6382L36.3101 30.8825C36.3148 30.8825 31.173 36.0796 31.173 43.8267ZM50.8268 32.7963C50.8268 32.681 50.9421 32.598 51.0528 32.6349L52.8881 33.239C52.9573 33.262 53.008 33.3266 53.008 33.405V33.76C53.008 33.8753 52.8927 33.9583 52.7821 33.9261L50.9467 33.322C50.8776 33.2989 50.8268 33.2344 50.8268 33.1606V32.7963ZM47.4282 31.5881C47.4282 31.4728 47.5435 31.3898 47.6542 31.4267L49.4895 32.0308C49.5587 32.0538 49.6094 32.1184 49.6094 32.1968V32.5519C49.6094 32.6671 49.4941 32.7502 49.3835 32.7133L47.5481 32.1092C47.479 32.0861 47.4282 32.0216 47.4282 31.9432V31.5881ZM43.9466 30.4721C43.9466 30.3568 44.0619 30.2738 44.1726 30.3061L46.0079 30.9102C46.0771 30.9333 46.1278 30.9978 46.1278 31.0716V31.4267C46.1278 31.542 46.0125 31.625 45.9019 31.5927L44.0665 30.9886C43.9973 30.9655 43.9466 30.901 43.9466 30.8226V30.4721ZM40.4742 29.679V29.3239C40.4742 29.2086 40.5895 29.1256 40.7002 29.1579L42.5355 29.762C42.6047 29.785 42.6554 29.8496 42.6554 29.928V30.2831C42.6554 30.3983 42.5401 30.4813 42.4295 30.4491L40.5941 29.845C40.5204 29.8173 40.4742 29.7527 40.4742 29.679ZM45.8788 63.522C44.4447 63.522 43.278 61.9357 43.278 59.9758C43.278 58.6478 43.8129 57.4949 44.6061 56.8862C44.3617 57.4257 44.2187 58.0621 44.2187 58.7446C44.2187 60.7044 45.3808 62.2908 46.8195 62.2908C47.2807 62.2908 47.7141 62.1248 48.0923 61.8342C47.6357 62.8441 46.8149 63.522 45.8788 63.522ZM66.7961 58.7262H64.1676V56.4343L66.7961 56.7248V58.7262ZM61.1379 52.6898L67.3587 53.5568L67.331 53.8058L61.1102 52.9389L61.1379 52.6898ZM67.3725 54.3269L67.3495 54.5805L61.1102 53.8427L61.1333 53.5891L67.3725 54.3269ZM58.0621 54.7189C57.7209 54.7189 57.4442 54.2946 57.4442 53.7781C57.4442 53.257 57.7209 52.8374 58.0621 52.8374C58.4034 52.8374 58.68 53.2617 58.68 53.7781C58.68 54.2992 58.4034 54.7189 58.0621 54.7189ZM59.5516 54.682C59.2611 54.682 59.0259 54.2854 59.0259 53.8012C59.0259 53.3124 59.2611 52.9204 59.5516 52.9204C59.8421 52.9204 60.0773 53.317 60.0773 53.8012C60.0773 54.2854 59.8421 54.682 59.5516 54.682ZM61.5898 58.0713H60.4508V55.9501L60.7644 55.9593L61.5898 56.0884V58.0713ZM61.1149 54.7419L61.1333 54.4883L67.4233 55.1108L67.4048 55.3644L61.1149 54.7419Z" fill="white"/>
</svg>
