<svg width="22" height="28" viewBox="0 0 22 28" fill="none" xmlns="http://www.w3.org/2000/svg">
<path d="M19.9567 4.19233H15.4615V3.37502C15.4615 2.02084 14.3638 0.923096 13.0096 0.923096H9.74039C8.38621 0.923096 7.28846 2.02084 7.28846 3.37502V4.19233H2.79327C1.66487 4.19233 0.75 5.1072 0.75 6.2356V7.87021C0.75 8.32177 1.11575 8.68752 1.56731 8.68752H21.1827C21.6343 8.68752 22 8.32177 22 7.87021V6.2356C22 5.1072 21.0851 4.19233 19.9567 4.19233ZM8.92308 3.37502C8.92308 2.92448 9.28984 2.55771 9.74039 2.55771H13.0096C13.4602 2.55771 13.8269 2.92448 13.8269 3.37502V4.19233H8.92308V3.37502Z" fill="white"/>
<path d="M2.30087 10.322C2.15477 10.322 2.03882 10.4441 2.04597 10.5897L2.72025 24.7414C2.78257 26.0511 3.85835 27.0768 5.16911 27.0768H17.5809C18.8917 27.0768 19.9675 26.0511 20.0298 24.7414L20.7041 10.5897C20.7112 10.4441 20.5948 10.322 20.4492 10.322H2.30087ZM14.6443 12.3653C14.6443 11.9137 15.01 11.548 15.4616 11.548C15.9131 11.548 16.2789 11.9137 16.2789 12.3653V22.9903C16.2789 23.4419 15.9131 23.8076 15.4616 23.8076C15.01 23.8076 14.6443 23.4419 14.6443 22.9903V12.3653ZM10.5577 12.3653C10.5577 11.9137 10.9235 11.548 11.375 11.548C11.8266 11.548 12.1923 11.9137 12.1923 12.3653V22.9903C12.1923 23.4419 11.8266 23.8076 11.375 23.8076C10.9235 23.8076 10.5577 23.4419 10.5577 22.9903V12.3653ZM6.47118 12.3653C6.47118 11.9137 6.83692 11.548 7.28849 11.548C7.74005 11.548 8.10579 11.9137 8.10579 12.3653V22.9903C8.10579 23.4419 7.74005 23.8076 7.28849 23.8076C6.83692 23.8076 6.47118 23.4419 6.47118 22.9903V12.3653Z" fill="white"/>
</svg>
