<svg width="79" height="64" viewBox="0 0 79 64" fill="none" xmlns="http://www.w3.org/2000/svg">
<path d="M78.8419 28.9505L70.1843 14.1453C70.0639 13.9406 69.8834 13.7759 69.6674 13.6774L39.9822 0.105048C39.6767 -0.035016 39.3234 -0.035016 39.0179 0.105048L9.33268 13.6774C9.11666 13.7759 8.93459 13.9406 8.81578 14.1453L0.156643 28.9505C-0.00845486 29.2322 -0.0454861 29.5693 0.0532639 29.8802C0.152014 30.1911 0.377287 30.4451 0.67508 30.5805L30.3603 44.1529C30.9018 44.4007 31.5422 44.1975 31.8415 43.685L38.342 32.5676V61.0452L10.9713 48.5318V38.8628C10.9713 38.2255 10.4529 37.7084 9.81409 37.7084C9.1753 37.7084 8.65686 38.2255 8.65686 38.8628V49.2737C8.65686 49.7246 8.92071 50.1356 9.33268 50.3234L39.0179 63.8957C39.1706 63.965 39.3357 64.0004 39.5008 64.0004C39.6659 64.0004 39.8295 63.965 39.9838 63.8957L69.6689 50.3234C70.0809 50.1356 70.3448 49.7246 70.3448 49.2737V38.8643C70.3448 38.2271 69.8263 37.7099 69.1875 37.7099C68.5487 37.7099 68.0303 38.2271 68.0303 38.8643V48.5333L40.6596 61.0467V32.5691L47.1616 43.6865C47.3746 44.0513 47.7619 44.2591 48.1615 44.2591C48.3235 44.2591 48.4871 44.2252 48.6429 44.1544L78.3281 30.582C78.6243 30.4466 78.8511 30.1911 78.9483 29.8817C79.044 29.5693 79.007 29.2322 78.8419 28.9505ZM30.3695 41.6194L2.79975 29.0136L10.2862 16.2124L37.856 28.8182L30.3695 41.6194ZM39.4993 27.0281L12.5914 14.7271L39.4993 2.42457L66.4071 14.7271L39.4993 27.0281ZM48.629 41.6194L41.1425 28.8182L68.7123 16.2124L76.1988 29.0136L48.629 41.6194Z" fill="black"/>
</svg>
