<svg width="120" height="120" viewBox="0 0 120 120" fill="none" xmlns="http://www.w3.org/2000/svg">
<circle cx="60" cy="60" r="60" fill="url(#paint0_linear)"/>
<path d="M34.9256 50.7546H35.8894V51.7185C35.8894 52.2189 36.2945 52.6239 36.7949 52.6239C37.2953 52.6239 37.7004 52.2189 37.7004 51.7185V50.7546H38.6642C39.1646 50.7546 39.5696 50.3496 39.5696 49.8492C39.5696 49.3488 39.1646 48.9437 38.6642 48.9437H37.7004V47.9799C37.7004 47.4795 37.2953 47.0745 36.7949 47.0745C36.2945 47.0745 35.8894 47.4795 35.8894 47.9799V48.9437H34.9256C34.4252 48.9437 34.0202 49.3488 34.0202 49.8492C34.0202 50.3496 34.4264 50.7546 34.9256 50.7546Z" fill="black"/>
<path d="M86.1777 55.3426C86.1777 54.8423 85.7726 54.4372 85.2723 54.4372C84.7719 54.4372 84.3668 54.8423 84.3668 55.3426V56.3065H83.403C82.9026 56.3065 82.4975 56.7115 82.4975 57.2119C82.4975 57.7123 82.9026 58.1174 83.403 58.1174H84.3668V59.0812C84.3668 59.5816 84.7719 59.9867 85.2723 59.9867C85.7726 59.9867 86.1777 59.5816 86.1777 59.0812V58.1174H87.1415C87.6419 58.1174 88.047 57.7123 88.047 57.2119C88.047 56.7115 87.6419 56.3065 87.1415 56.3065H86.1777V55.3426Z" fill="black"/>
<path d="M71.5547 32.6802H72.5185V33.644C72.5185 34.1444 72.9236 34.5495 73.4239 34.5495C73.9243 34.5495 74.3294 34.1444 74.3294 33.644V32.6802H75.2932C75.7936 32.6802 76.1987 32.2751 76.1987 31.7747C76.1987 31.2744 75.7936 30.8693 75.2932 30.8693H74.3294V29.9055C74.3294 29.4051 73.9243 29 73.4239 29C72.9236 29 72.5185 29.4051 72.5185 29.9055V30.8693H71.5547C71.0543 30.8693 70.6492 31.2744 70.6492 31.7747C70.6492 32.2751 71.0543 32.6802 71.5547 32.6802Z" fill="black"/>
<path d="M43.9706 45.4244L50.5411 58.3759C49.3485 58.8882 48.5121 60.0748 48.5121 61.4521C48.5121 63.2975 50.0133 64.7999 51.8599 64.7999H74.4593C76.3047 64.7999 77.8071 63.2975 77.8071 61.4521C77.8071 60.0736 76.9695 58.8882 75.7781 58.3759L77.7844 54.4205C78.0108 53.9749 77.8321 53.4293 77.3865 53.2041C76.9409 52.9778 76.3953 53.1565 76.1701 53.602L73.8862 58.1055H52.4342L45.8041 45.036C46.1401 44.8728 46.451 44.6631 46.7263 44.4165L53.4921 50.595C54.4214 51.4433 55.8987 51.2217 56.5361 50.1339L60.9061 42.6794C61.3564 41.9122 61.2361 40.9305 60.6142 40.2943L59.2227 38.8694C59.1643 38.8086 59.1583 38.7133 59.2096 38.6466L63.1245 33.6047C63.1292 33.5987 63.1376 33.5868 63.1602 33.5868C63.1828 33.5868 63.19 33.5975 63.1959 33.6047L67.1108 38.6466C67.1621 38.7133 67.1573 38.8086 67.0977 38.8694L65.705 40.2931C65.0831 40.9305 64.9628 41.911 65.4131 42.6783L69.7831 50.1339C70.4193 51.2205 71.8954 51.4456 72.8271 50.595L79.5929 44.4165C79.8681 44.6631 80.1779 44.8728 80.5151 45.036L78.1466 49.705C77.9202 50.1506 78.0989 50.6963 78.5445 50.9214C78.9901 51.1478 79.5346 50.9703 79.7609 50.5235L82.3474 45.4244C84.4705 45.3612 86.1777 43.6159 86.1777 41.4773C86.1777 39.2995 84.4061 37.5279 82.2283 37.5279C80.0504 37.5279 78.2788 39.2995 78.2788 41.4773C78.2788 41.9849 78.3765 42.4686 78.5505 42.9153L71.6059 49.2571C71.5273 49.3297 71.3998 49.3119 71.345 49.2178L66.975 41.7621C66.9369 41.6966 66.9464 41.612 67 41.5572L68.3916 40.1323C69.079 39.4282 69.1421 38.3106 68.5393 37.5339L64.6244 32.4919C64.2706 32.0356 63.7368 31.7747 63.159 31.7747C62.5812 31.7747 62.0474 32.0368 61.6936 32.4919L57.7787 37.5339C57.1747 38.3118 57.239 39.4282 57.9264 40.1323L59.318 41.5572C59.3716 41.612 59.3811 41.6954 59.343 41.7621L54.973 49.2166C54.9182 49.3107 54.7907 49.3286 54.7121 49.2559L47.7675 42.9141C47.9427 42.4686 48.0392 41.9837 48.0392 41.4761C48.0392 39.2983 46.2676 37.5267 44.0897 37.5267C41.9119 37.5267 40.1403 39.2983 40.1403 41.4761C40.1403 43.6147 41.8487 45.3601 43.9706 45.4244ZM82.2283 39.3388C83.4077 39.3388 84.3668 40.2979 84.3668 41.4773C84.3668 42.6568 83.4077 43.6159 82.2283 43.6159C81.0488 43.6159 80.0897 42.6568 80.0897 41.4773C80.0897 40.2979 81.0488 39.3388 82.2283 39.3388ZM74.4593 62.989H51.8587C51.0117 62.989 50.3219 62.2991 50.3219 61.4521C50.3219 60.605 51.0117 59.9152 51.8587 59.9152H51.8742C51.8754 59.9152 51.8766 59.9152 51.8778 59.9152C51.879 59.9152 51.8802 59.9152 51.8814 59.9152H74.4342C74.4354 59.9152 74.4366 59.9152 74.4378 59.9152C74.439 59.9152 74.4402 59.9152 74.4414 59.9152H74.4569C75.304 59.9152 75.9938 60.605 75.9938 61.4521C75.9962 62.3003 75.3063 62.989 74.4593 62.989ZM44.0897 39.3376C45.2692 39.3376 46.2283 40.2967 46.2283 41.4761C46.2283 42.6556 45.2692 43.6147 44.0897 43.6147C42.9103 43.6147 41.9512 42.6556 41.9512 41.4761C41.9512 40.2979 42.9103 39.3376 44.0897 39.3376Z" fill="black"/>
<path d="M88.5855 72.8989C87.4584 71.2417 85.5463 70.8366 83.4709 71.8136L68.774 78.2851L68.7823 77.0902C68.7823 77.058 68.7811 77.0259 68.7776 76.9937C68.5238 74.4417 66.5735 72.4092 64.0335 72.0494C64.0251 72.0483 64.018 72.0471 64.0096 72.0459L54.2856 70.926C52.2316 70.6329 51.2273 69.9538 49.3008 68.8268C46.5356 67.2089 43.388 66.3451 40.1856 66.3177V65.8126C40.1856 64.3912 39.0299 63.2356 37.6086 63.2356H33.577C32.1556 63.2356 31 64.3912 31 65.8126V68.7362C31 69.2366 31.4051 69.6417 31.9055 69.6417C32.4058 69.6417 32.8109 69.2366 32.8109 68.7362V65.8126C32.8109 65.3896 33.1552 65.0465 33.577 65.0465H37.6122C38.0351 65.0465 38.3782 65.3908 38.3782 65.8126V86.2829C38.3782 86.7058 38.0339 87.049 37.6122 87.049H33.577C33.154 87.049 32.8109 86.7047 32.8109 86.2829V73.1062C32.8109 72.6058 32.4058 72.2008 31.9055 72.2008C31.4051 72.2008 31 72.6058 31 73.1062V86.2841C31 87.7054 32.1556 88.8611 33.577 88.8611H37.6122C39.0335 88.8611 40.1891 87.7054 40.1891 86.2841V86.072L48.9553 89.3352C50.1408 89.776 51.3834 90 52.6498 90H65.7645C67.7744 90 69.7342 89.4317 71.432 88.3559L87.8528 77.9504C87.8945 77.9242 87.9326 77.8956 87.9695 77.8622C89.3885 76.6017 89.653 74.468 88.5855 72.8989ZM86.8151 76.4623L70.4622 86.825C69.0552 87.7173 67.4301 88.1879 65.7634 88.1879H52.6486C51.599 88.1879 50.5697 88.0021 49.5868 87.6363L40.1891 84.1384V68.1286C43.0699 68.156 45.9018 68.9352 48.3894 70.3899C50.4005 71.5657 51.6252 72.3783 54.0461 72.7202C54.0544 72.7214 54.0616 72.7226 54.0699 72.7238L63.794 73.8437C65.4834 74.0879 66.7844 75.433 66.9738 77.1271L66.9619 78.7712H57.9193C57.4189 78.7712 57.0138 79.1763 57.0138 79.6767C57.0138 80.1771 57.4189 80.5821 57.9193 80.5821H67.8602C67.9758 80.5821 68.1056 80.5571 68.2212 80.5071C68.2224 80.5071 68.2236 80.5059 68.2248 80.5059L84.2119 73.466C84.2191 73.4624 84.2274 73.4589 84.2346 73.4565C85.1114 73.0419 86.3183 72.7845 87.0891 73.9187C87.6336 74.7181 87.5132 75.7999 86.8151 76.4623Z" fill="black"/>
<defs>
<linearGradient id="paint0_linear" x1="60" y1="0" x2="60" y2="120" gradientUnits="userSpaceOnUse">
<stop stop-color="#FFD65A"/>
<stop offset="1" stop-color="#C4C4C4" stop-opacity="0"/>
</linearGradient>
</defs>
</svg>
