<svg width="91" height="65" viewBox="0 0 91 65" fill="none" xmlns="http://www.w3.org/2000/svg">
<path d="M81.1391 26.3359H66.6175V5.62133C66.6175 2.52399 64.0967 0.0032227 60.9976 0.0032227C60.9976 0.0032227 13.6269 0.00146484 13.6181 0.00146484C13.6093 0.00146484 5.61986 0.0032227 5.61986 0.0032227C2.52076 0.0032227 0 2.52223 0 5.62133V35.8635C0 38.9626 2.52076 41.4833 5.61986 41.4833H33.3782V55.1366C33.3782 60.0252 37.3544 64.0015 42.243 64.0015H73.0442C73.7719 64.0015 74.3626 63.4108 74.3626 62.6831C74.3626 61.9553 73.7719 61.3647 73.0442 61.3647H42.243C38.8082 61.3647 36.0149 58.5714 36.0149 55.1366V45.7145H87.3654V55.1366C87.3654 58.5714 84.5722 61.3647 81.1391 61.3647H78.3177C77.59 61.3647 76.9993 61.9553 76.9993 62.6831C76.9993 63.4108 77.59 64.0015 78.3177 64.0015H81.1391C86.0259 64.0015 90.0022 60.0252 90.0022 55.1366V35.199C90.0022 30.3122 86.0259 26.3359 81.1391 26.3359ZM87.223 33.8806H36.1573C36.7638 31.0786 39.2617 28.9727 42.243 28.9727H81.1391C84.1204 28.9727 86.6166 31.0786 87.223 33.8806ZM44.2364 26.3359H42.243C38.1103 26.3359 34.6298 29.1783 33.6524 33.0105C33.5381 33.014 33.4221 33.0193 33.3078 33.0193C26.5383 33.0193 21.031 27.5119 21.031 20.7424C21.031 13.9729 26.5383 8.46554 33.3078 8.46554C40.0773 8.46554 45.5847 13.9729 45.5847 20.7424C45.5847 22.6971 45.1206 24.615 44.2364 26.3359ZM63.9807 5.62133V12.2221C58.9778 11.6209 54.9998 7.64462 54.3986 2.64001H60.9976C62.6429 2.64001 63.9807 3.97773 63.9807 5.62133ZM2.63678 35.8617V29.2627C7.63964 29.8639 11.6159 33.8419 12.2189 38.8448H5.61986C3.97451 38.8448 2.63678 37.5071 2.63678 35.8617ZM14.8715 38.8448C14.2474 32.3864 9.09515 27.2324 2.63678 26.6084V14.8747C5.18392 14.6321 7.57636 13.6916 9.62426 12.1131C10.2008 11.6684 10.3081 10.8404 9.86333 10.2638C9.41859 9.68725 8.59064 9.58002 8.01406 10.0248C6.43199 11.2447 4.59503 11.9936 2.63678 12.2238V5.62133C2.63678 3.97773 3.97451 2.64001 5.61986 2.64001H12.2224C12.0659 3.96543 11.6722 5.2346 11.0428 6.42643C10.7036 7.07156 10.9514 7.86787 11.5948 8.20713C11.7899 8.31085 12.0009 8.36007 12.2083 8.36007C12.6812 8.36007 13.14 8.10342 13.3755 7.65517C14.1912 6.10474 14.6992 4.39259 14.8697 2.64001H51.7425C52.3665 9.09837 57.5188 14.2524 63.9789 14.8747V26.3359H47.1316C47.8471 24.5693 48.2197 22.669 48.2197 20.7424C48.2197 12.5192 41.5293 5.82876 33.3061 5.82876C25.0828 5.82876 18.3924 12.5192 18.3924 20.7424C18.3924 28.9656 25.0828 35.656 33.3061 35.656C33.3289 35.656 33.3535 35.6543 33.3764 35.6543V38.8448H14.8715ZM36.0149 43.0777V36.5174H87.3654V43.0777H36.0149Z" fill="black"/>
</svg>
