<svg width="57" height="64" viewBox="0 0 57 64" fill="none" xmlns="http://www.w3.org/2000/svg">
<path d="M56.6085 52.2762C56.1845 51.0777 55.3152 50.1236 54.1629 49.5886C53.0105 49.0536 51.721 49.005 50.5312 49.4539L49.1444 49.9765V33.6191C49.1444 32.9307 48.5857 32.372 47.8973 32.372C47.2089 32.372 46.6502 32.9307 46.6502 33.6191V50.9156L40.6801 53.1666C40.1788 53.3562 39.6662 53.5046 39.1474 53.6119C38.0088 53.8463 36.8402 53.8837 35.6841 53.7191C36.1393 53.214 36.4948 52.6054 36.7155 51.9183C37.5661 49.293 36.092 46.4047 33.3882 45.6938L22.4471 42.8192C22.3436 42.7918 22.2376 42.778 22.1303 42.778H13.6274V40.4272C13.6274 39.7388 13.0687 39.1801 12.3803 39.1801H9.78997V10.3639H16.4659C17.1543 10.3639 17.713 9.80516 17.713 9.11674V2.49573H46.6502V22.4748C46.6502 23.1632 47.2089 23.7219 47.8973 23.7219C48.5857 23.7219 49.1444 23.1632 49.1444 22.4748V1.2486C49.1444 0.560179 48.5857 0.00146484 47.8973 0.00146484H16.4659C16.1404 0.00146484 15.8186 0.133661 15.5866 0.363133L7.66362 8.23253C7.4304 8.46449 7.29571 8.78875 7.29571 9.11799V39.1826H1.24713C0.558714 39.1826 0 39.7413 0 40.4297V61.7718C0 62.4602 0.558714 63.019 1.24713 63.019H12.379C13.0674 63.019 13.6261 62.4602 13.6261 61.7718V59.5245H18.1657L34.5156 63.4954C35.5058 63.7361 36.5085 63.8558 37.5062 63.8558C39.1137 63.8558 40.7126 63.5453 42.2328 62.9304L53.9446 58.1926C56.2805 57.2472 57.4491 54.6495 56.6085 52.2762ZM15.2187 7.86961H11.5684L15.2187 4.2442V7.86961ZM11.1319 60.5247H2.49426V41.6768L11.1319 41.6781V60.5247ZM53.0105 55.8791L41.2987 60.617C39.3208 61.4176 37.1782 61.5748 35.1042 61.0709L18.6084 57.0652C18.5124 57.0415 18.4139 57.0302 18.3141 57.0302H13.6249V45.2748H21.967L32.7534 48.1083C33.1288 48.2068 33.4667 48.3939 33.7424 48.652C34.568 49.4227 34.6852 50.6761 34.124 51.6339C33.6164 52.5019 32.5938 52.987 31.601 52.8025L24.3303 51.0889C23.6606 50.9318 22.9884 51.3458 22.83 52.0168C22.6716 52.6865 23.0869 53.3587 23.7578 53.5171L23.7641 53.5183H23.7666C23.9973 53.5732 27.9045 54.4936 30.9051 55.2044C32.5663 55.5973 34.2487 56.1049 35.9523 56.262C37.9564 56.4466 39.9294 56.1161 41.8038 55.409C44.1858 54.511 50.5873 52.0966 51.4067 51.7886C52.5453 51.3595 53.8473 51.9656 54.2527 53.1105C54.6517 54.2205 54.1043 55.4377 53.0105 55.8791Z" fill="black"/>
</svg>
