<svg width="71" height="65" viewBox="0 0 71 65" fill="none" xmlns="http://www.w3.org/2000/svg">
<path d="M63.5134 0.00146484H17.602C13.6179 0.00146484 10.3755 3.21227 10.3755 7.14746L10.0794 47.5743H1.11962C0.485789 47.5743 0 48.1363 0 48.7701V54.3337C0 59.5423 4.16802 63.8023 9.19838 64.0351V64.1027H47.8603V64.0279C48.1478 64.0394 48.3217 64.1027 48.52 64.1027H48.5473C53.9126 64.071 58.2372 59.6989 58.2085 54.3337V18.9731H69.8804C70.5156 18.9731 71 18.3982 71 17.7644V7.55563C71.0072 3.4063 67.6613 0.031647 63.5134 0.00146484ZM9.70142 61.8031H9.69423C5.60382 61.8031 2.29959 58.4227 2.29959 54.3337V49.8739H38.8057V54.3136C38.797 56.9021 39.8189 59.3871 41.6471 61.2195C41.8411 61.415 42.0452 61.5156 42.2522 61.8031H9.70142ZM55.9089 54.3323C55.9089 58.4227 52.6363 61.8031 48.5459 61.8031H48.5229C44.4109 61.7729 41.0966 58.427 41.1067 54.315V48.7716C41.1096 48.1277 40.6008 47.5973 39.9569 47.5758H12.379L12.6751 7.15608C12.6751 4.48136 14.8856 2.3025 17.602 2.3025H58.0849C56.7741 3.73831 55.9089 5.55642 55.9089 7.58582V54.3323ZM68.7004 7.57575V16.6735H58.2085V7.58438C58.2085 4.70557 60.6029 2.30106 63.4789 2.30106H63.5105C66.3951 2.3298 68.7133 4.68258 68.7004 7.56713V7.57575Z" fill="black"/>
<path d="M27.0003 28.3023L32.9289 32.3554C33.3155 32.6227 33.8272 32.6227 34.2138 32.3554L40.1238 28.3038C42.1776 26.9025 43.6939 23.9748 43.6939 21.4912V13.2917C43.7068 12.8577 43.4668 12.4567 43.0802 12.2598L34.0543 7.82013C33.7381 7.66347 33.3658 7.66347 33.0497 7.82013L24.041 12.2469C23.6544 12.4438 23.4158 12.8462 23.4287 13.2788V21.4912C23.4273 23.9748 24.9465 26.9039 27.0003 28.3023ZM25.7269 13.9974L33.5599 10.1327L41.3929 14.0075V21.4912C41.3929 23.2231 40.2575 25.4264 38.826 26.4023L33.5469 30.0127L28.2881 26.4023C26.8566 25.425 25.7269 23.2217 25.7269 21.4898V13.9974Z" fill="black"/>
<path d="M31.615 23.2274C31.8291 23.4459 32.1223 23.5709 32.4284 23.5723H32.4313C32.7374 23.5709 33.0292 23.4487 33.2448 23.2317L37.8181 18.6555C38.268 18.2057 38.268 17.477 37.8181 17.0286C37.3697 16.5787 36.641 16.5787 36.1912 17.0286L32.4342 20.7855L30.9323 19.2692C30.4853 18.8179 29.7566 18.8151 29.3053 19.262C28.854 19.709 28.8511 20.4377 29.2981 20.889L31.615 23.2274Z" fill="black"/>
<path d="M47.8607 35.6451H20.2655C19.6303 35.6451 19.1157 36.1597 19.1157 36.7949C19.1157 37.4302 19.6303 37.9447 20.2655 37.9447H47.8607C48.4959 37.9447 49.0105 37.4302 49.0105 36.7949C49.0105 36.1597 48.4959 35.6451 47.8607 35.6451Z" fill="black"/>
<path d="M47.8607 40.963H20.2655C19.6303 40.963 19.1157 41.4775 19.1157 42.1128C19.1157 42.7481 19.6303 43.2626 20.2655 43.2626H47.8607C48.4959 43.2626 49.0105 42.7481 49.0105 42.1128C49.0105 41.4775 48.4959 40.963 47.8607 40.963Z" fill="black"/>
</svg>
