<svg width="19" height="17" viewBox="0 0 19 17" fill="none" xmlns="http://www.w3.org/2000/svg">
<path d="M16.9095 3.14455L3.19088 15.4926C2.58565 16.0374 1.82448 16.1702 1.4829 15.7907L1.08103 15.3443C0.739451 14.9648 0.951403 14.2217 1.55664 13.677L15.2752 1.32892C15.8805 0.784148 16.6416 0.651286 16.9832 1.03078L17.3851 1.47725C17.7267 1.85675 17.5147 2.59978 16.9095 3.14455Z" fill="#D09F0A"/>
<path d="M1.55683 3.14455L15.2754 15.4926C15.8807 16.0374 16.6418 16.1702 16.9834 15.7907L17.3853 15.3443C17.7269 14.9648 17.5149 14.2217 16.9097 13.677L3.19107 1.32892C2.58584 0.784148 1.82467 0.651286 1.48309 1.03078L1.08122 1.47725C0.73964 1.85675 0.951592 2.59978 1.55683 3.14455Z" fill="#D09F0A"/>
</svg>
